<?xml version="1.0" encoding="UTF-8"?>
<svg width="320px" height="320px" viewBox="0 0 320 320" version="1.1" xmlns="http://www.w3.org/2000/svg" xmlns:xlink="http://www.w3.org/1999/xlink">
    <!-- Generator: Sketch 62 (91390) - https://sketch.com -->
    <title>index_tech_milvus</title>
    <desc>Created with Sketch.</desc>
    <g id="v3" stroke="none" stroke-width="1" fill="none" fill-rule="evenodd">
        <g id="index" transform="translate(-196.000000, -5827.000000)" fill-rule="nonzero">
            <g id="milvus-stacked-color" transform="translate(266.000000, 5905.000000)" fill="#4FC4F9">
                <path d="M126.988353,17.5417637 C103.166057,-5.84625624 64.5394343,-5.84925125 40.7111481,17.5417637 L1.7281198,55.791015 C0.62448843,56.8661053 0.00201830444,58.3414752 0.00201830444,59.8821963 C0.00201830444,61.4229174 0.62448843,62.8982873 1.7281198,63.9733777 L40.684193,102.243594 C64.5064892,125.643594 103.145092,125.652579 126.979368,102.264559 L126.979368,102.264559 C138.407835,91.1339462 144.853922,75.8577279 144.853922,59.9046589 C144.853922,43.9515899 138.407835,28.6753716 126.979368,17.5447587 L126.988353,17.5417637 Z M117.739767,91.0212978 L117.739767,91.0212978 C100.230948,108.206656 71.8472546,108.197671 54.347421,91.0063228 L25.7241265,62.8951747 C24.9126557,62.105771 24.4548746,61.0217805 24.4548746,59.8896839 C24.4548746,58.7575872 24.9126557,57.6735967 25.7241265,56.884193 L54.359401,28.78203 C71.8622296,11.6026622 100.239933,11.6026622 117.742762,28.78203 L117.742762,28.78203 C126.141458,36.9577978 130.878183,48.1813199 130.878183,59.9022961 C130.878183,71.6232722 126.13925,82.8463383 117.739767,91.0212978 L117.739767,91.0212978 Z" id="Shape"></path>
                <path d="M178.008319,55.8299501 L160.867887,38.6805324 C160.414849,38.2273874 159.717687,38.1262728 159.154579,38.432039 C158.591471,38.7378051 158.296612,39.3775851 158.42995,40.0043261 C161.403371,53.1157307 161.403371,66.7265322 158.42995,79.8379368 C158.293743,80.4647932 158.587529,81.1063362 159.151108,81.4127347 C159.714687,81.7191331 160.41285,81.6168787 160.864892,81.1617304 L178.014309,64.0183028 C179.099527,62.9317551 179.708587,61.4585558 179.707465,59.9228857 C179.70634,58.3872155 179.095126,56.9149089 178.008319,55.8299501 L178.008319,55.8299501 Z" id="Path"></path>
                <circle id="Oval" transform="translate(86.255799, 59.918660) rotate(-45.000000) translate(-86.255799, -59.918660) " cx="86.2557992" cy="59.9186601" r="30.0249584"></circle>
            </g>
            <path d="M399.841148,6057.69636 C401.151064,6057.68109 402.459905,6057.77726 403.753524,6057.98381 C404.736838,6058.14122 405.690984,6058.44522 406.584127,6058.88565 C407.006455,6059.09943 407.379993,6059.39826 407.68126,6059.76336 C407.963411,6060.12976 408.109954,6060.58257 408.095976,6061.04481 C408.10226,6061.4011 408.021676,6061.75356 407.861189,6062.07173 C407.59919,6062.58312 407.215677,6063.02239 406.744308,6063.35098 C406.564378,6063.47094 406.450276,6063.54408 406.402003,6063.57041 C406.216269,6063.42023 406.017229,6063.28729 405.807357,6063.17325 C405.394573,6062.94349 404.959288,6062.75673 404.508351,6062.6159 C403.871456,6062.4093 403.221164,6062.24655 402.562037,6062.12878 C401.711377,6061.97511 400.848169,6061.90164 399.983775,6061.90935 C398.902002,6061.90935 398.149369,6062.03662 397.730264,6062.28896 C397.349933,6062.47449 397.105792,6062.85766 397.098315,6063.28077 C397.081004,6063.66412 397.314735,6064.01427 397.675407,6064.14531 C398.232701,6064.36084 398.814012,6064.50819 399.406683,6064.58416 L402.68711,6065.05373 C403.486552,6065.16985 404.276409,6065.34439 405.050335,6065.57597 C405.774921,6065.78892 406.457695,6066.12437 407.069059,6066.56778 C407.660645,6067.0037 408.142272,6067.57173 408.475584,6068.22664 C408.843038,6068.99016 409.02212,6069.83064 408.997819,6070.67764 C408.997819,6072.69636 408.228363,6074.27111 406.689451,6075.40189 C405.15054,6076.53267 403.022833,6077.09294 400.306332,6077.0827 C398.070751,6077.10869 395.844738,6076.78667 393.708174,6076.12819 C393.040404,6075.92832 392.394275,6075.66222 391.779415,6075.33387 C391.425009,6075.14312 391.081445,6074.93288 390.750304,6074.70412 L392.806331,6070.94973 C393.107136,6071.15382 393.426757,6071.32869 393.760837,6071.47196 C394.275306,6071.70169 394.805461,6071.89454 395.347291,6072.04905 C396.034607,6072.24557 396.732849,6072.40163 397.438426,6072.51643 C398.254879,6072.65274 399.081424,6072.71954 399.90917,6072.71611 C400.895127,6072.71611 401.640446,6072.62615 402.145127,6072.44622 C402.649808,6072.26629 402.902148,6071.94739 402.902148,6071.48952 C402.932085,6071.05603 402.675748,6070.65372 402.2702,6070.49771 C401.636309,6070.27055 400.976621,6070.12313 400.306332,6070.05885 L398.430235,6069.83943 C397.518588,6069.72518 396.615503,6069.55072 395.726899,6069.31719 C394.912658,6069.11193 394.138912,6068.77068 393.43828,6068.30783 C392.784343,6067.87196 392.245966,6067.28389 391.86938,6066.59411 C391.456424,6065.77969 391.257812,6064.87347 391.292288,6063.96099 C391.284085,6063.11277 391.449874,6062.27188 391.779415,6061.49025 C392.120829,6060.71544 392.648474,6060.03704 393.315401,6059.51541 C394.109844,6058.90182 395.016096,6058.4487 395.983628,6058.18129 C397.239572,6057.83556 398.53871,6057.67225 399.841148,6057.69636 Z M371.137955,6058.18349 C371.734839,6058.17623 372.329681,6058.25456 372.904339,6058.41608 C373.433157,6058.57407 373.76888,6058.675 373.913702,6058.72328 L373.937839,6067.99186 C373.937839,6070.49332 375.067886,6071.74332 377.327979,6071.74186 C379.588073,6071.74039 380.717389,6070.49039 380.715926,6067.99186 L380.715926,6060.75078 C380.715926,6059.81456 380.992403,6059.15628 381.545358,6058.77594 C382.098313,6058.3956 382.829735,6058.20324 383.739624,6058.19885 C384.332838,6058.19263 384.923912,6058.27095 385.495037,6058.43144 C386.023855,6058.58943 386.359578,6058.69036 386.504399,6058.73864 L386.504399,6069.07363 C386.532138,6070.28159 386.291574,6071.48067 385.80004,6072.58445 C385.356415,6073.5508 384.696486,6074.40218 383.87128,6075.07275 C383.0065,6075.76012 382.013754,6076.2688 380.950712,6076.56924 C378.569783,6077.24236 376.048873,6077.24236 373.667944,6076.56924 C372.604902,6076.2688 371.612156,6075.76012 370.747376,6075.07275 C369.921547,6074.40279 369.261496,6073.55125 368.818616,6072.58445 C368.327083,6071.48067 368.086518,6070.28159 368.114257,6069.07363 L368.114257,6060.73542 C368.114257,6059.7992 368.390734,6059.14092 368.943689,6058.76058 C369.496644,6058.38024 370.228066,6058.18788 371.137955,6058.18349 Z M296.135753,6052.23483 C296.600172,6052.39864 297.037885,6052.63007 297.434758,6052.92164 C298.299299,6054.69899 299.206994,6056.59191 300.157842,6058.6004 C301.108691,6060.60888 302.07563,6062.54934 303.058662,6064.42179 C303.926128,6062.6927 304.773846,6060.9863 305.601816,6059.30256 C306.429785,6057.61883 307.192659,6056.02067 307.890435,6054.50809 C308.346842,6053.47386 308.90638,6052.77023 309.569049,6052.39721 C310.26041,6052.0212 311.037929,6051.83211 311.824754,6051.84864 C312.63946,6051.83235 313.450638,6051.96012 314.220892,6052.22606 C314.681243,6052.37275 315.123043,6052.57229 315.537452,6052.8207 L316.906674,6076.58241 L310.8505,6076.58241 L310.018873,6061.79086 L308.684759,6064.5315 C308.228352,6065.46918 307.789499,6066.39443 307.3682,6067.30724 C306.946901,6068.22006 306.55047,6069.09118 306.178908,6069.92062 C305.813197,6070.74566 305.484057,6071.48513 305.191488,6072.13902 L300.71738,6072.13902 C300.454068,6071.48952 300.123465,6070.73249 299.725572,6069.86795 C299.327678,6069.00341 298.913693,6068.10157 298.483617,6067.16242 C298.044764,6066.2262 297.600059,6065.2951 297.149504,6064.36912 C296.690902,6063.44314 296.271797,6062.59616 295.885606,6061.82597 L295.097865,6076.57363 L289,6076.57363 L290.226595,6054.94036 C290.23038,6054.41692 290.347142,6053.90048 290.5689,6053.42632 C290.74807,6053.04574 291.020558,6052.71664 291.36103,6052.46962 C291.6922,6052.23853 292.06465,6052.07317 292.458163,6051.98249 C292.884377,6051.88597 293.320166,6051.83813 293.757168,6051.83986 C294.568012,6051.81792 295.375518,6051.952 296.135753,6052.23483 Z M325.815393,6058.19226 C326.412996,6058.18504 327.008558,6058.26336 327.583972,6058.42486 C328.110595,6058.58284 328.448512,6058.68378 328.593334,6058.73205 L328.593334,6076.58021 L322.791695,6076.58021 L322.791695,6060.7442 C322.791695,6059.80798 323.068172,6059.1497 323.621127,6058.76936 C324.174082,6058.38902 324.905504,6058.19665 325.815393,6058.19226 Z M337.398923,6050.00985 C337.995806,6050.00259 338.590649,6050.08091 339.165307,6050.24244 C339.694125,6050.40043 340.029848,6050.50136 340.174669,6050.54964 L340.174669,6076.57363 L334.375224,6076.57363 L334.375224,6052.55958 C334.375224,6051.62336 334.651702,6050.96508 335.204657,6050.58474 C335.757612,6050.20441 336.489034,6050.01277 337.398923,6050.00985 Z M348.756443,6058.41827 C349.040259,6058.49965 349.317524,6058.60234 349.585876,6058.72547 C349.994009,6059.90306 350.42628,6061.09308 350.882687,6062.29554 C351.339094,6063.498 351.777947,6064.60976 352.199246,6065.63083 C352.620545,6066.65482 352.999422,6067.55593 353.335876,6068.33416 C353.671599,6069.11532 353.912968,6069.66389 354.055595,6069.97547 C354.20188,6069.66389 354.430083,6069.12922 354.740206,6068.37146 C355.050329,6067.61371 355.393366,6066.77258 355.769317,6065.84806 L356.886198,6063.07012 C357.259224,6062.1456 357.578124,6061.35859 357.842898,6060.70909 C357.979568,6060.36082 358.142409,6060.0234 358.330025,6059.69973 C358.505329,6059.39612 358.727494,6059.12212 358.988305,6058.88785 C359.255215,6058.65186 359.56832,6058.47401 359.907702,6058.36561 C360.340041,6058.23522 360.790381,6058.17448 361.241816,6058.18568 C361.678954,6058.18129 362.11505,6058.22918 362.540822,6058.32831 C362.884506,6058.41265 363.2218,6058.52117 363.550184,6058.65306 C363.787334,6058.74832 364.016301,6058.8628 364.234795,6058.99537 C364.403753,6059.10508 364.511272,6059.17091 364.559546,6059.19504 C364.381502,6059.86609 364.152637,6060.52261 363.874935,6061.15891 C363.515076,6062.03662 363.087925,6063.04013 362.593484,6064.16944 C362.099043,6065.29876 361.564373,6066.48293 360.989476,6067.72196 C360.413115,6068.95953 359.848457,6070.1554 359.295502,6071.30959 C358.742547,6072.46377 358.225432,6073.50312 357.744156,6074.42764 C357.262881,6075.35362 356.890587,6076.06895 356.627275,6076.57363 L351.242546,6076.57363 C350.499422,6075.25707 349.772388,6073.89882 349.061446,6072.49888 C348.350504,6071.09894 347.707584,6069.79481 347.132686,6068.5865 C346.556326,6067.3738 346.075782,6066.34031 345.691054,6065.486 C345.306326,6064.6317 345.065688,6064.08533 344.96914,6063.84689 C344.776045,6063.36415 344.56759,6062.82436 344.339386,6062.22313 C344.127612,6061.70793 344.011611,6061.15841 343.99708,6060.60157 C343.985698,6059.95461 344.246892,6059.33268 344.7168,6058.88785 C345.196612,6058.41827 345.917795,6058.18422 346.880346,6058.18568 C347.513896,6058.16746 348.146524,6058.24589 348.756443,6058.41827 Z M325.677154,6050.00107 C326.540902,6049.98976 327.372613,6050.32774 327.983633,6050.93835 C328.594654,6051.54896 328.933198,6052.38044 328.922474,6053.24419 C328.944619,6054.10573 328.603853,6054.93694 327.983328,6055.53501 C327.372038,6056.14322 326.539259,6056.47602 325.677154,6056.4566 C324.820139,6056.47536 323.992663,6056.14317 323.386516,6055.53703 C322.78037,6054.93088 322.448181,6054.1034 322.466943,6053.24639 L322.466943,6053.24419 C322.446946,6052.38241 322.77893,6051.54968 323.386341,6050.93802 C323.984786,6050.3183 324.815952,6049.97835 325.677154,6050.00107 Z" id="Combined-Shape" fill="#28292E"></path>
        </g>
    </g>
</svg>