<?xml version="1.0" encoding="UTF-8"?>
<svg width="320px" height="320px" viewBox="0 0 320 320" version="1.1" xmlns="http://www.w3.org/2000/svg" xmlns:xlink="http://www.w3.org/1999/xlink">
    <!-- Generator: Sketch 62 (91390) - https://sketch.com -->
    <title>index_tech_arctern</title>
    <desc>Created with Sketch.</desc>
    <g id="v3" stroke="none" stroke-width="1" fill="none" fill-rule="evenodd">
        <g id="index" transform="translate(-196.000000, -6389.000000)" fill-rule="nonzero">
            <g id="arctern_icon" transform="translate(308.000000, 6441.000000)" fill="#ED1C24">
                <path d="M95.0627219,49.9976331 C88.7668639,84.0804734 47.9337278,144.028402 47.9337278,144.028402 C47.9337278,144.028402 7.10059172,84.0615385 0.814201183,49.9976331 C0.277114826,52.3520801 0.00402980086,54.7590388 0,57.1739645 C0,88.7573964 47.9337278,159.147929 47.9337278,159.147929 C47.9337278,159.147929 95.8674556,88.7573964 95.8674556,57.1739645 C95.8614453,54.7596806 95.5915987,52.3532842 95.0627219,49.9976331 Z" id="Path"></path>
                <path d="M93.4627219,44.7147929 C92.5659095,42.3496077 91.4799487,40.0605418 90.2153846,37.8698225 C77.5384615,71.8485207 47.9337278,115.313609 47.9337278,115.313609 C47.9337278,115.313609 18.3384615,71.8485207 5.68047337,37.8698225 C4.41850761,40.0501842 3.32956432,42.3262023 2.42366864,44.6769231 C12.1372781,79.3372781 47.9526627,131.928994 47.9526627,131.928994 C47.9526627,131.928994 83.7491124,79.3751479 93.4627219,44.7147929 Z" id="Path"></path>
                <path d="M86.8449704,32.6911243 C72.956213,13.3680473 47.9337278,0 47.9337278,0 C47.9337278,0 22.9207101,13.3680473 9.03195266,32.6911243 C22.9207101,64.9940828 47.9337278,101.727811 47.9337278,101.727811 C47.9337278,101.727811 72.956213,64.9940828 86.8449704,32.6911243 Z" id="Path"></path>
            </g>
            <g id="arctern_wordmark" transform="translate(290.000000, 6614.000000)" fill="#000000">
                <path d="M12.56,1.2 L0,33.73 L4,33.73 L6.76,26.24 L12.86,9.71 L13,9.71 L19,26.24 L21.71,33.73 L25.71,33.73 L13.14,1.19 C13.0923911,1.07011289 12.9755175,0.992236439 12.8465424,0.994413745 C12.7175673,0.996683857 12.6034478,1.07854295 12.56,1.2 Z" id="Path"></path>
                <path d="M37.61,11.73 C36.5035105,11.7094182 35.4187176,12.0383554 34.51,12.67 C33.5572522,13.347884 32.779216,14.2424542 32.24,15.28 L31.86,12.13 L28.35,12.13 L28.35,33.73 L32.28,33.73 L32.28,18.3 C32.6230262,17.4650463 33.1949999,16.7440128 33.93,16.22 C34.7065266,15.7099306 35.6213696,15.4515398 36.55,15.48 L38.55,15.6 L39.11,12 C38.9366667,11.9533333 38.7166667,11.9033333 38.45,11.85 C38.1742845,11.7842615 37.8930937,11.7440914 37.61,11.73 Z" id="Path"></path>
                <path d="M45.5,17.05 C46.4356418,15.5334177 48.1442287,14.6713931 49.92,14.82 C51.2404356,14.7797253 52.5197423,15.282052 53.46,16.21 C54.3708046,17.0884991 54.8775494,18.3046867 54.86,19.57 L58.41,19.57 L58.41,19.45 C58.4888382,17.3843178 57.6506138,15.389417 56.12,14 C54.42339,12.4762991 52.198447,11.6760374 49.92,11.77 C47.1723029,11.6086677 44.508842,12.7496217 42.73,14.85 C41.0142309,17.041828 40.1255419,19.768085 40.22,22.55 L40.22,23.39 C40.1144821,26.1779608 41.000224,28.9131318 42.72,31.11 C44.4990713,33.2159009 47.168314,34.3577437 49.92,34.19 C52.1180932,34.214431 54.2502573,33.4397447 55.92,32.01 C57.5157533,30.8491507 58.4450913,28.9830099 58.41,27.01 L58.41,26.89 L54.86,26.89 C54.8687262,28.0700604 54.3155266,29.1838852 53.37,29.89 C52.3972388,30.6838717 51.1754447,31.1088435 49.92,31.09 C48.1478871,31.2439928 46.4382517,30.3949639 45.49,28.89 C44.5572417,27.2074983 44.100876,25.3025171 44.17,23.38 L44.17,22.5 C44.1108425,20.5963313 44.5705858,18.712421 45.5,17.05 Z" id="Path"></path>
                <path d="M71,30.84 C70.7529299,30.8892679 70.5019033,30.9160441 70.25,30.92 C69.635522,30.9467577 69.036488,30.7230221 68.59,30.3 C68.1269451,29.6883438 67.9158101,28.9225321 68,28.16 L68,15 L72.09,15 L72.09,12.13 L68,12.13 L68,6.92 L64,6.92 L64,12.13 L60.61,12.13 L60.61,15 L64,15 L64,28.16 C63.8618638,29.8007503 64.3715712,31.430378 65.42,32.7 C66.4325382,33.6930083 67.8134551,34.2185541 69.23,34.15 C69.8277003,34.1539577 70.4231607,34.0765815 71,33.92 C71.4668925,33.8167944 71.9065739,33.6156998 72.29,33.33 L71.77,30.64 C71.5185688,30.7254044 71.2612116,30.7922504 71,30.84 Z" id="Path"></path>
                <path d="M84.71,11.73 C82.1960147,11.7322972 79.813595,12.8538671 78.21,14.79 C76.3526564,16.9086809 75.3696649,19.6539081 75.46,22.47 L75.46,23.35 C75.3364916,26.1903567 76.2900965,28.9725971 78.13,31.14 C79.949588,33.1640557 82.5811687,34.2651355 85.3,34.14 C86.8676959,34.1812655 88.4288893,33.9233292 89.9,33.38 C91.0147102,32.9445165 92.0337467,32.2957299 92.9,31.47 L91.36,28.91 C90.5989419,29.591053 89.7170767,30.1235639 88.76,30.48 C87.6331484,30.8760366 86.4441429,31.0657355 85.25,31.04 C83.5888734,31.1216547 81.9958737,30.3720078 81,29.04 C79.9679598,27.5649892 79.4321028,25.7998132 79.47,24 L79.53,23.9 L93.53,23.9 L93.53,21.39 C93.6501061,18.8631257 92.854774,16.3777127 91.29,14.39 C89.81,12.6233333 87.6166667,11.7366667 84.71,11.73 Z M89.62,20.73 L79.62,20.73 L79.62,20.63 C79.7814764,19.1037922 80.3785475,17.6562417 81.34,16.46 C82.1506309,15.4153347 83.3977141,14.8028619 84.72,14.8 C86.1220043,14.7056087 87.4850655,15.2850026 88.39,16.36 C89.2386899,17.4638135 89.6770645,18.8284312 89.63,20.22 L89.62,20.73 Z" id="Shape"></path>
                <path d="M106.64,11.73 C105.533511,11.7094182 104.448718,12.0383554 103.54,12.67 C102.589802,13.350691 101.812349,14.2445904 101.27,15.28 L100.89,12.13 L97.38,12.13 L97.38,33.73 L101.31,33.73 L101.31,18.3 C101.663946,17.4599866 102.25023,16.7384063 103,16.22 C103.779618,15.7085449 104.698068,15.4501216 105.63,15.48 L107.63,15.6 L108.17,11.95 C107.996667,11.9033333 107.776667,11.8533333 107.51,11.8 C107.222986,11.7482784 106.931591,11.7248328 106.64,11.73 L106.64,11.73 Z" id="Path"></path>
                <path d="M126.16,13.77 C124.727889,12.3568342 122.756957,11.6282087 120.75,11.77 C119.453216,11.7442329 118.173967,12.0726887 117.05,12.72 C115.94209,13.3708712 115.011388,14.2844013 114.34,15.38 L114.06,12.17 L110.55,12.17 L110.55,33.77 L114.48,33.77 L114.48,18 C114.971093,17.0850573 115.691235,16.3132304 116.57,15.76 C117.472081,15.2078805 118.512497,14.9235001 119.57,14.94 C120.83761,14.8368196 122.090037,15.2724463 123.02,16.14 C123.885572,17.3033046 124.288272,18.7466105 124.15,20.19 L124.15,33.73 L128.08,33.73 L128.08,20.09 C128.08,17.25 127.44,15.1433333 126.16,13.77 Z" id="Path"></path>
            </g>
        </g>
    </g>
</svg>