<svg xmlns="http://www.w3.org/2000/svg" viewBox="0 0 590.75 129"><defs><style>.cls-1{fill:#231815;}</style></defs><g id="Layer_2" data-name="Layer 2"><g id="main"><rect class="cls-1" width="18.94" height="19"/><rect class="cls-1" x="21.94" width="18.94" height="19"/><rect class="cls-1" x="43.87" width="18.94" height="19"/><rect class="cls-1" x="65.81" width="18.94" height="19"/><rect class="cls-1" x="65.81" y="22" width="18.94" height="19"/><rect class="cls-1" x="43.87" y="44" width="18.94" height="19"/><rect class="cls-1" x="21.94" y="66" width="18.94" height="19"/><rect class="cls-1" y="88" width="18.94" height="19"/><rect class="cls-1" y="110" width="18.94" height="19"/><rect class="cls-1" x="21.94" y="110" width="18.94" height="19"/><rect class="cls-1" x="43.87" y="110" width="18.94" height="19"/><rect class="cls-1" x="65.81" y="110" width="18.94" height="19"/><rect class="cls-1" x="109.97" width="18.94" height="19"/><rect class="cls-1" x="131.9" width="18.94" height="19"/><rect class="cls-1" x="153.84" width="18.94" height="19"/><rect class="cls-1" x="131.9" y="22" width="18.94" height="19"/><rect class="cls-1" x="131.9" y="44" width="18.94" height="19"/><rect class="cls-1" x="131.9" y="66" width="18.94" height="19"/><rect class="cls-1" x="131.9" y="88" width="18.94" height="19"/><rect class="cls-1" x="109.97" y="110" width="18.94" height="19"/><rect class="cls-1" x="131.9" y="110" width="18.94" height="19"/><rect class="cls-1" x="153.84" y="110" width="18.94" height="19"/><rect class="cls-1" x="198" width="18.94" height="19"/><rect class="cls-1" x="198" y="22" width="18.94" height="19"/><rect class="cls-1" x="198" y="44" width="18.94" height="19"/><rect class="cls-1" x="198" y="66" width="18.94" height="19"/><rect class="cls-1" x="198" y="88" width="18.94" height="19"/><rect class="cls-1" x="263.81" y="88" width="18.94" height="19"/><rect class="cls-1" x="198" y="110" width="18.94" height="19"/><rect class="cls-1" x="219.94" y="110" width="18.94" height="19"/><rect class="cls-1" x="241.87" y="110" width="18.94" height="19"/><rect class="cls-1" x="263.81" y="110" width="18.94" height="19"/><rect class="cls-1" x="308" width="18.94" height="19"/><rect class="cls-1" x="308" y="22" width="18.94" height="19"/><rect class="cls-1" x="308" y="44" width="18.94" height="19"/><rect class="cls-1" x="308" y="66" width="18.94" height="19"/><rect class="cls-1" x="308" y="88" width="18.94" height="19"/><rect class="cls-1" x="373.81" y="88" width="18.94" height="19"/><rect class="cls-1" x="308" y="110" width="18.94" height="19"/><rect class="cls-1" x="329.94" y="110" width="18.94" height="19"/><rect class="cls-1" x="351.87" y="110" width="18.94" height="19"/><rect class="cls-1" x="373.81" y="110" width="18.94" height="19"/><rect class="cls-1" x="417.97" width="18.94" height="19"/><rect class="cls-1" x="439.9" width="18.94" height="19"/><rect class="cls-1" x="461.84" width="18.94" height="19"/><rect class="cls-1" x="439.9" y="22" width="18.94" height="19"/><rect class="cls-1" x="439.9" y="44" width="18.94" height="19"/><rect class="cls-1" x="439.9" y="66" width="18.94" height="19"/><rect class="cls-1" x="439.9" y="88" width="18.94" height="19"/><rect class="cls-1" x="417.97" y="110" width="18.94" height="19"/><rect class="cls-1" x="439.9" y="110" width="18.94" height="19"/><rect class="cls-1" x="461.84" y="110" width="18.94" height="19"/><rect class="cls-1" x="506" width="18.94" height="19"/><rect class="cls-1" x="527.94" width="18.94" height="19"/><rect class="cls-1" x="549.87" width="18.94" height="19"/><rect class="cls-1" x="571.81" width="18.94" height="19"/><rect class="cls-1" x="571.81" y="22" width="18.94" height="19"/><rect class="cls-1" x="549.87" y="44" width="18.94" height="19"/><rect class="cls-1" x="527.94" y="66" width="18.94" height="19"/><rect class="cls-1" x="506" y="88" width="18.94" height="19"/><rect class="cls-1" x="506" y="110" width="18.94" height="19"/><rect class="cls-1" x="527.94" y="110" width="18.94" height="19"/><rect class="cls-1" x="549.87" y="110" width="18.94" height="19"/><rect class="cls-1" x="571.81" y="110" width="18.94" height="19"/></g></g></svg>