<?xml version="1.0" standalone="no"?><!DOCTYPE svg PUBLIC "-//W3C//DTD SVG 1.1//EN" "http://www.w3.org/Graphics/SVG/1.1/DTD/svg11.dtd"><svg t="1528687897574" class="icon" style="" viewBox="0 0 1024 1024" version="1.1" xmlns="http://www.w3.org/2000/svg" p-id="157766" xmlns:xlink="http://www.w3.org/1999/xlink" width="200" height="200"><defs><style type="text/css"></style></defs><path d="M516.266 525.927c6.292 6.412 13.836 9.722 21.799 9.722 8.292 0 16.104-3.698 22.574-10.556l195.532-195.624c-2.833-1.074-5.696-1.79-8.737-1.79h-419.037c-3.101 0-5.964 0.776-8.796 1.79l196.578 196.368c0 0.088 0.028 0.088 0.088 0.088z" p-id="157767"></path><path d="M576.174 552.944c-10.915 11.153-24.364 17.385-38.11 17.385-13.539 0-26.302-5.666-37.038-16.223 0 0-0.357-0.148-0.476-0.299l-201.676-201.468c-1.968 5.547-3.191 11.75-3.191 18.221l0.328 277.45c0 9.483 2.416 18.161 6.442 25.317l122.801-122.235c2.982-2.952 7.217-2.148 9.483 1.759 2.296 3.906 1.7 9.483-1.282 12.494l-120.624 119.939c4.711 3.49 10.050 5.636 15.864 5.636h418.949c5.815 0 11.243-2.176 15.954-5.636l-119.699-119.908c-2.982-3.042-3.549-8.588-1.313-12.494 2.326-3.996 6.561-4.652 9.542-1.73l121.847 122.115c3.996-7.097 6.412-15.775 6.412-25.257l-0.328-277.421c0-6.59-1.253-12.702-3.221-18.28l-200.305 200.454c0-0.028-0.24 0.060-0.357 0.18z" p-id="157768"></path><path d="M512 989.129c-263.077 0-477.129-214.052-477.129-477.129s214.052-477.129 477.129-477.129c263.077 0 477.129 214.052 477.129 477.129 0 263.077-214.052 477.129-477.129 477.129zM512 94.513c-230.215 0-417.487 187.272-417.487 417.487 0 230.245 187.272 417.487 417.487 417.487 230.245 0 417.487-187.244 417.487-417.487 0-230.215-187.244-417.487-417.487-417.487z" p-id="157769"></path></svg>