<?xml version="1.0" standalone="no"?><!DOCTYPE svg PUBLIC "-//W3C//DTD SVG 1.1//EN" "http://www.w3.org/Graphics/SVG/1.1/DTD/svg11.dtd"><svg t="1528684682507" class="icon" style="" viewBox="0 0 1024 1024" version="1.1" xmlns="http://www.w3.org/2000/svg" p-id="6085" xmlns:xlink="http://www.w3.org/1999/xlink" width="200" height="200"><defs><style type="text/css"></style></defs><path d="M177.698656 616.750739c14.894222 0 28.916587-5.813403 39.451524-16.349363 10.535961-10.533914 16.34834-24.555256 16.34834-39.452547 0-8.462742-2.071172-16.528442-5.594415-23.940249 0.035816-0.070608 0.10847-0.070608 0.145309-0.107447l148.798954-148.799978c0.036839-0.035816 0.054235-0.109494 0.109494-0.145309 7.410783 3.523243 15.493879 5.594415 23.940249 5.594415 14.530948 0 28.190039-5.594415 38.633902-15.693424l129.419582 64.736397c-0.254803 2.252297-0.654916 4.468778-0.654916 6.757914 0 14.930037 5.812379 28.916587 16.34834 39.452547 10.533914 10.533914 24.557302 16.347317 39.452547 16.347317 14.893198 0 28.916587-5.813403 39.452547-16.347317 10.534937-10.535961 16.347317-24.559349 16.347317-39.452547 0-8.574283-2.124384-16.748453-5.777587-24.231891 0.545422-0.544399 1.236154-0.763386 1.708921-1.343601l147.637502-184.581925c7.371898 3.524267 15.420201 5.558599 23.829731 5.558599 14.895245 0 28.916587-5.812379 39.452547-16.347317 10.533914-10.534937 16.34834-24.558325 16.34834-39.452547 0-14.895245-5.814426-28.916587-16.34834-39.452547-21.035082-21.10569-57.83522-21.10569-78.904071 0-10.533914 10.535961-16.34834 24.557302-16.34834 39.452547 0 8.573259 2.106987 16.711614 5.739724 24.195052-0.527003 0.508583-1.199315 0.799202-1.672082 1.38044L647.746172 399.292032c-20.325931-9.154497-45.772486-5.885034-62.283532 9.953699L456.043059 344.509335c0.254803-2.252297 0.653893-4.468778 0.653893-6.757914 0-14.893198-5.812379-28.916587-16.347317-39.452547-21.034059-21.10569-57.834196-21.10569-78.904071 0-10.534937 10.535961-16.347317 24.559349-16.347317 39.452547 0 8.465812 2.052752 16.528442 5.594415 23.940249-0.036839 0.036839-0.10847 0.074701-0.145309 0.109494L201.747375 510.60114c-0.10847 0.107447-0.145309 0.252757-0.25378 0.36225-20.670785-9.372461-46.735417-5.994528-63.247486 10.533914-21.760606 21.724791-21.760606 57.146535 0 78.904071C148.78207 610.93836 162.804435 616.750739 177.698656 616.750739z" p-id="6086"></path><path d="M940.294065 850.183256 921.695474 850.183256l0-502.19775c0-10.279111-8.320503-18.599613-18.600637-18.599613L791.49511 329.385892c-10.280134 0-18.600637 8.320503-18.600637 18.599613l0 502.19775-74.398454 0L698.49602 608.384188c0-10.279111-8.319479-18.600637-18.600637-18.600637L568.296679 589.783551c-10.281157 0-18.600637 8.321526-18.600637 18.600637l0 241.799068-74.398454 0 0-353.398796c0-10.281157-8.319479-18.59859-18.600637-18.59859L345.097224 478.18587c-10.281157 0-18.599613 8.317433-18.599613 18.59859l0 353.398796-74.4005 0L252.09711 719.983915c0-10.282181-8.318456-18.599613-18.599613-18.599613L121.898793 701.384301c-10.280134 0-18.599613 8.317433-18.599613 18.599613l0 130.198318L84.698542 850.182232c-10.280134 0-18.599613 8.320503-18.599613 18.599613 0 10.281157 8.319479 18.600637 18.599613 18.600637l37.20025 0 111.599727 0 111.599727 0 111.599727 0L568.296679 887.382483l111.599727 0 111.599727 0 111.600751 0 37.199227 0c10.281157 0 18.600637-8.319479 18.600637-18.600637C958.894701 858.502735 950.575222 850.183256 940.294065 850.183256z" p-id="6087"></path></svg>