<?xml version="1.0" standalone="no"?><!DOCTYPE svg PUBLIC "-//W3C//DTD SVG 1.1//EN" "http://www.w3.org/Graphics/SVG/1.1/DTD/svg11.dtd"><svg t="1528708081616" class="icon" style="" viewBox="0 0 1084 1024" version="1.1" xmlns="http://www.w3.org/2000/svg" p-id="186826" xmlns:xlink="http://www.w3.org/1999/xlink" width="211.71875" height="200"><defs><style type="text/css"></style></defs><path d="M894.795294 523.324235v411.105883a1.927529 1.927529 0 0 1-1.867294 1.867294H187.632941a1.867294 1.867294 0 0 1-1.927529-1.867294V523.324235a28.310588 28.310588 0 1 0-56.560941 0v411.105883c0 32.286118 26.202353 58.428235 58.48847 58.428235h705.295059a58.428235 58.428235 0 0 0 58.428235-58.428235V523.324235a28.310588 28.310588 0 0 0-56.560941 0z" p-id="186827"></path><path d="M57.464471 278.166588c0-1.084235 0.903529-1.927529 1.867294-1.927529h965.632c1.024 0 1.867294 0.843294 1.867294 1.927529v199.860706a1.867294 1.867294 0 0 1-1.807059 1.92753H59.271529a1.867294 1.867294 0 0 1-1.807058-1.92753V278.166588z m-56.560942 0v199.860706c0 32.286118 26.202353 58.428235 58.428236 58.428235h965.632a58.428235 58.428235 0 0 0 58.428235-58.428235V278.166588a58.428235 58.428235 0 0 0-58.428235-58.48847H59.392a58.428235 58.428235 0 0 0-58.428235 58.428235z" p-id="186828"></path><path d="M515.734588 272.504471v683.068235a28.310588 28.310588 0 0 0 56.621177 0V272.504471a28.310588 28.310588 0 1 0-56.621177 0z" p-id="186829"></path><path d="M524.950588 267.926588a28.310588 28.310588 0 1 0 42.164706-37.767529L391.288471 33.912471A108.604235 108.604235 0 0 0 236.423529 32.828235a109.025882 109.025882 0 0 0 0 154.021647L311.356235 263.830588a28.310588 28.310588 0 1 0 40.538353-39.454117L276.720941 147.154824a52.525176 52.525176 0 0 1-0.240941-74.330353 52.043294 52.043294 0 0 1 73.246118-0.481883l175.284706 195.584z" p-id="186830"></path><path d="M807.996235 72.824471a52.464941 52.464941 0 0 1 0.240941 73.84847l-82.160941 78.185412a28.310588 28.310588 0 0 0 39.032471 40.96L847.510588 187.331765a109.146353 109.146353 0 0 0 0.481883-154.50353 108.604235 108.604235 0 0 0-154.563765 0.722824l-175.887059 189.680941a28.310588 28.310588 0 0 0 41.562353 38.490353l175.405176-189.259294a52.043294 52.043294 0 0 1 73.426824 0.361412z" p-id="186831"></path></svg>