<?xml version="1.0" standalone="no"?><!DOCTYPE svg PUBLIC "-//W3C//DTD SVG 1.1//EN" "http://www.w3.org/Graphics/SVG/1.1/DTD/svg11.dtd"><svg t="1528686381542" class="icon" style="" viewBox="0 0 1024 1024" version="1.1" xmlns="http://www.w3.org/2000/svg" p-id="79048" xmlns:xlink="http://www.w3.org/1999/xlink" width="200" height="200"><defs><style type="text/css"></style></defs><path d="M192.512 870.912h638.976A409.1392 409.1392 0 0 0 921.6 614.4c0-225.792-183.296-409.6-409.6-409.6s-409.6 183.808-409.6 409.6c0 97.28 33.792 185.856 90.112 256.512zM460.8 307.2c0-28.16 23.04-51.2 51.2-51.2s51.2 23.04 51.2 51.2c0 28.672-23.04 51.2-51.2 51.2s-51.2-22.528-51.2-51.2zM204.8 409.6c0-28.16 23.04-51.2 51.2-51.2s51.2 23.04 51.2 51.2c0 28.672-23.04 51.2-51.2 51.2s-51.2-22.528-51.2-51.2z m231.424 174.08c43.008-42.496 333.312-179.2 333.312-179.2s-136.192 290.816-178.688 333.312c-43.008 43.008-111.616 43.008-154.624 0a109.056 109.056 0 0 1 0-154.112zM153.6 665.6c0-28.16 23.04-51.2 51.2-51.2s51.2 23.04 51.2 51.2c0 28.672-23.04 51.2-51.2 51.2s-51.2-22.528-51.2-51.2z m307.2 0c0-28.16 23.04-51.2 51.2-51.2s51.2 23.04 51.2 51.2c0 28.672-23.04 51.2-51.2 51.2s-51.2-22.528-51.2-51.2z m307.2 0c0-28.16 23.04-51.2 51.2-51.2s51.2 23.04 51.2 51.2c0 28.672-23.04 51.2-51.2 51.2s-51.2-22.528-51.2-51.2z" p-id="79049"></path></svg>