<?xml version="1.0" standalone="no"?><!DOCTYPE svg PUBLIC "-//W3C//DTD SVG 1.1//EN" "http://www.w3.org/Graphics/SVG/1.1/DTD/svg11.dtd"><svg t="1528707739790" class="icon" style="" viewBox="0 0 1024 1024" version="1.1" xmlns="http://www.w3.org/2000/svg" p-id="177997" xmlns:xlink="http://www.w3.org/1999/xlink" width="200" height="200"><defs><style type="text/css"></style></defs><path d="M528.896 204.8c56.32 0 102.4-45.568 102.4-101.888 0-56.32-46.08-101.888-102.4-101.888-56.32 0-102.4 45.568-102.4 101.888C426.496 158.72 472.064 204.8 528.896 204.8zM528.896 41.472c33.792 0 61.44 27.648 61.44 60.928 0 33.792-27.648 60.928-61.44 60.928-33.792 0-61.44-27.648-61.44-60.928C466.944 69.12 494.592 41.472 528.896 41.472zM935.936 269.312l-78.848-135.68c-8.704-14.848-33.792-14.848-42.496 0l-78.848 135.68 0 0c-4.096 7.68-4.096 16.896 0 24.576 4.608 7.68 12.288 12.288 20.992 12.288l157.696 0c8.704 0 16.896-4.608 20.992-12.288C940.032 286.208 940.032 276.992 935.936 269.312zM784.896 265.216l50.688-87.04 50.688 87.04L784.896 265.216zM317.44 273.92c0-6.656-2.56-12.8-7.168-17.408L219.648 166.912c-9.216-9.216-25.6-9.216-34.816 0L94.208 257.024c-4.608 4.608-7.168 10.752-7.168 17.408 0 6.656 2.56 12.8 7.168 17.408l90.624 90.112c4.608 4.608 10.752 7.168 17.408 7.168 6.656 0 12.8-2.56 17.408-7.168l90.624-90.112C314.88 286.72 317.44 280.576 317.44 273.92zM202.24 340.992 134.656 273.92l67.584-67.072 67.584 67.072L202.24 340.992zM717.312 505.344c-15.36-2.048-45.568 10.752-52.736 14.848-93.184 53.76-183.808 53.76-276.992 0-6.656-4.096-13.824-7.68-20.48-11.776-18.944-10.24-38.912-12.8-55.808-7.168-14.848 5.12-26.112 15.36-32.768 30.208-10.752 24.064-5.12 57.344 5.632 76.288 12.8 22.528 34.816 39.424 56.32 54.272 29.696 19.968 43.008 49.152 41.472 88.576-1.024 25.088-6.656 53.248-15.872 83.456-5.632 17.92-14.848 35.84-24.064 54.272-3.584 6.656-6.656 13.312-10.24 19.968-20.992 42.496-10.752 80.384 27.648 102.912 21.504 12.8 63.488 25.6 102.912-28.16 17.92-24.064 35.84-48.64 55.296-74.752l8.192-10.752 10.24 13.824c19.456 26.624 37.376 50.688 55.808 74.752 17.92 24.064 39.936 36.352 62.464 36.352 12.288 0 25.088-3.584 37.888-11.264 37.376-22.016 48.128-58.88 29.696-98.816l-13.824-29.696c-10.752-23.04-22.528-47.104-32.256-71.168-19.456-45.568-4.608-112.128 32.768-145.92 5.12-4.608 10.752-9.216 16.384-13.824 16.384-13.312 33.28-27.648 45.568-46.08 13.312-20.48 16.384-59.904 0.512-78.336C755.2 509.952 738.816 507.904 717.312 505.344zM736.256 584.704c-8.704 13.312-22.528 24.576-37.376 36.864-6.144 5.12-11.776 9.728-17.92 14.848-50.688 45.568-69.632 129.536-43.008 192 10.752 24.576 22.016 48.64 33.28 72.192l13.824 29.696c9.728 20.992 5.632 35.328-13.312 46.592-12.8 7.68-27.648 11.264-47.104-14.336-17.92-24.064-35.84-48.128-55.296-74.752l-43.52-58.368-40.96 55.296c-19.456 26.624-37.888 50.688-55.296 75.264-21.504 29.696-36.864 24.576-49.152 16.896-13.824-8.192-26.112-20.48-11.776-50.176 3.072-6.656 6.656-12.8 9.728-19.456 9.728-18.944 19.968-38.912 26.624-60.416 10.752-33.792 16.896-65.024 17.92-93.696 2.048-53.76-17.92-95.232-59.392-123.904-16.896-11.264-35.328-25.088-43.52-40.448-6.144-11.264-8.192-30.72-4.096-39.936 2.56-6.144 6.144-7.68 8.192-8.192 5.632-2.048 14.336-0.512 23.04 4.608 6.656 3.584 13.312 7.168 19.968 11.264 105.472 60.928 212.48 60.928 317.952 0 5.632-3.072 23.552-9.216 27.648-9.728 18.944 2.56 21.504 3.072 26.624 8.192C741.888 558.592 741.376 577.024 736.256 584.704zM522.752 524.288c1.024 0 2.048 0 3.072 0 67.584 0 119.808-49.152 121.344-115.712 1.536-68.608-48.64-121.856-116.736-123.392-33.792-0.512-64.512 10.752-88.064 32.768-22.528 21.504-35.328 51.2-36.352 83.456C404.48 469.504 454.656 522.752 522.752 524.288zM470.528 347.136c14.848-13.824 34.304-21.504 56.32-21.504 1.024 0 1.536 0 2.56 0 45.056 1.024 78.336 36.352 76.8 81.92-1.024 44.032-35.328 76.288-80.384 76.288-0.512 0-1.536 0-2.048 0l0 0c-45.568-1.024-77.824-35.328-76.8-81.92C447.488 380.416 455.68 360.96 470.528 347.136z" p-id="177998"></path></svg>