<?xml version="1.0" standalone="no"?><!DOCTYPE svg PUBLIC "-//W3C//DTD SVG 1.1//EN" "http://www.w3.org/Graphics/SVG/1.1/DTD/svg11.dtd"><svg t="1528706230416" class="icon" style="" viewBox="0 0 1024 1024" version="1.1" xmlns="http://www.w3.org/2000/svg" p-id="175392" xmlns:xlink="http://www.w3.org/1999/xlink" width="200" height="200"><defs><style type="text/css"></style></defs><path d="M900.7 391c0 68.9-159.9 146.6-390.9 146.6S121.1 459.9 121.1 391V240c71.1 62.2 215.5 102.2 390.9 102.2 173.3 0 317.6-40 390.9-102.2v151h-2.2z m-779.6 91.1c71.1 62.2 215.5 102.2 390.9 102.2 173.3 0 317.6-40 390.9-102.2v151C902.9 702 743 779.7 512 779.7S121.1 702 121.1 633.1v-151zM512 0c228.8 0 390.9 77.7 390.9 146.6S743 293.3 512 293.3s-390.9-77.7-390.9-146.6S281 0 512 0zM121.1 877.4v-151c71.1 62.2 215.5 102.2 390.9 102.2 173.3 0 317.6-40 390.9-102.2v151C902.9 946.3 743 1024 512 1024s-390.9-77.7-390.9-146.6z" p-id="175393"></path></svg>