<?xml version="1.0" standalone="no"?><!DOCTYPE svg PUBLIC "-//W3C//DTD SVG 1.1//EN" "http://www.w3.org/Graphics/SVG/1.1/DTD/svg11.dtd"><svg t="1528686142757" class="icon" style="" viewBox="0 0 1024 1024" version="1.1" xmlns="http://www.w3.org/2000/svg" p-id="66337" xmlns:xlink="http://www.w3.org/1999/xlink" width="200" height="200"><defs><style type="text/css"></style></defs><path d="M469.333333 768.64l-95.466666-68.202667-101.376 193.984a42.666667 42.666667 0 1 1-75.648-39.509333l243.861333-466.666667a85.333333 85.333333 0 1 1 143.018667-0.682666l243.477333 468.501333a42.666667 42.666667 0 1 1-75.733333 39.36l-101.333334-194.986667L554.666667 768.597333V874.666667c0 23.573333-18.944 42.666667-42.666667 42.666666-23.573333 0-42.666667-18.922667-42.666667-42.666666v-106.026667z m43.050667-333.312l-98.624 188.757333L512 694.4l98.410667-70.421333-98.026667-188.650667zM178.773333 115.370667A319.061333 319.061333 0 0 0 85.333333 341.333333c0 86.592 34.602667 167.786667 94.933334 227.477334a42.666667 42.666667 0 0 0 60.010666-60.650667A233.770667 233.770667 0 0 1 170.666667 341.333333c0-63.018667 24.896-121.984 68.501333-165.717333A42.666667 42.666667 0 1 0 178.773333 115.370667z m665.173334 453.248A319.082667 319.082667 0 0 0 938.666667 341.333333c0-85.418667-33.685333-165.610667-92.586667-225.109333a42.666667 42.666667 0 1 0-60.629333 60.032A233.749333 233.749333 0 0 1 853.333333 341.333333c0 63.488-25.28 122.88-69.482666 166.677334a42.666667 42.666667 0 1 0 60.074666 60.608z m-574.506667-362.88A191.488 191.488 0 0 0 213.333333 341.333333c0 52.373333 21.12 101.482667 57.834667 137.365334a42.666667 42.666667 0 0 0 59.648-61.056A106.197333 106.197333 0 0 1 298.666667 341.333333c0-28.672 11.306667-55.445333 31.146666-75.349333a42.666667 42.666667 0 0 0-60.394666-60.266667zM754.496 477.013333A191.488 191.488 0 0 0 810.666667 341.333333c0-51.2-20.181333-99.306667-55.466667-134.976a42.666667 42.666667 0 1 0-60.672 59.989334A106.176 106.176 0 0 1 725.333333 341.333333c0 28.693333-11.306667 55.466667-31.210666 75.392a42.666667 42.666667 0 1 0 60.373333 60.309334z" p-id="66338"></path></svg>