<?xml version="1.0" standalone="no"?><!DOCTYPE svg PUBLIC "-//W3C//DTD SVG 1.1//EN" "http://www.w3.org/Graphics/SVG/1.1/DTD/svg11.dtd"><svg t="1528687996597" class="icon" style="" viewBox="0 0 1024 1024" version="1.1" xmlns="http://www.w3.org/2000/svg" p-id="163534" xmlns:xlink="http://www.w3.org/1999/xlink" width="200" height="200"><defs><style type="text/css"></style></defs><path d="M512 0c138.971429 0 270.628571 58.514286 365.714286 146.285714 95.085714 95.085714 146.285714 219.428571 146.285714 365.714286 0 138.971429-58.514286 270.628571-146.285714 365.714286-95.085714 95.085714-219.428571 146.285714-365.714286 146.285714-138.971429 0-270.628571-58.514286-365.714286-146.285714-95.085714-95.085714-146.285714-219.428571-146.285714-365.714286 0-138.971429 58.514286-270.628571 146.285714-365.714286C241.371429 58.514286 373.028571 0 512 0z m321.828571 190.171429C746.057143 109.714286 636.342857 58.514286 512 58.514286s-241.371429 51.2-321.828571 131.657143C109.714286 277.942857 58.514286 387.657143 58.514286 512s51.2 241.371429 131.657143 321.828571 197.485714 131.657143 321.828571 131.657143 234.057143-51.2 321.828571-131.657143c80.457143-80.457143 131.657143-197.485714 131.657143-321.828571s-51.2-234.057143-131.657143-321.828571z" p-id="163535"></path><path d="M512 219.428571c109.714286 0 204.8 87.771429 204.8 204.8 0 95.085714-146.285714 285.257143-197.485714 380.342858-51.2-109.714286-212.114286-270.628571-212.114286-380.342858C307.2 307.2 394.971429 219.428571 512 219.428571z m0 131.657143c-36.571429 0-58.514286 29.257143-58.514286 58.514286s21.942857 58.514286 58.514286 58.514286c29.257143 0 58.514286-29.257143 58.514286-58.514286 0-36.571429-29.257143-58.514286-58.514286-58.514286z" p-id="163536"></path></svg>