<?xml version="1.0" standalone="no"?><!DOCTYPE svg PUBLIC "-//W3C//DTD SVG 1.1//EN" "http://www.w3.org/Graphics/SVG/1.1/DTD/svg11.dtd"><svg t="1528708010570" class="icon" style="" viewBox="0 0 1132 1024" version="1.1" xmlns="http://www.w3.org/2000/svg" p-id="186150" xmlns:xlink="http://www.w3.org/1999/xlink" width="221.09375" height="200"><defs><style type="text/css"></style></defs><path d="M749.36604 973.873551 556.650216 973.873551 325.015133 973.873551 123.659129 973.873551C98.87847 973.873551 73.906257 973.073893 49.043311 973.312L49.043311 895.064086 49.043311 894.051096C77.50667 876.012733 105.96733 857.972989 134.42934 839.934626 186.173298 807.139096 237.917256 774.343572 289.661214 741.548043 301.524094 734.029075 313.385626 726.511481 325.248506 718.992519 332.574786 714.350107 337.274612 706.515957 337.274612 697.601374 337.274612 688.437679 332.622 681.850492 325.801585 676.63415 325.035368 676.003786 324.266452 675.377551 323.511027 674.734797 320.241113 671.951829 317.054836 669.067011 313.926564 666.120257 305.214888 657.915872 296.955118 649.206364 289.128369 640.122492 284.684847 634.965332 280.159039 629.731096 276.156632 624.19269 275.695282 623.534797 275.078801 622.667701 274.562144 621.956128 273.500501 620.493075 272.450999 619.021765 271.41094 617.542193 268.923431 613.999481 266.503371 610.407225 264.154807 606.766797 259.604717 599.713032 255.32577 592.478968 251.361134 585.065979 249.313391 581.236989 247.349285 577.362583 245.476908 573.441374 244.601424 571.606711 243.744825 569.762406 242.911159 567.908471 242.452507 566.891353 240.558548 562.295743 240.667815 562.668733 237.602945 554.752 234.788984 546.763701 232.499775 538.568946 231.925112 536.509935 231.378777 534.444043 230.860771 532.368516 230.434495 530.65772 229.738424 526.348387 229.866577 528.513376 229.577897 525.445505 229.291914 522.376258 229.004582 519.307011 227.225285 500.306581 225.444639 481.306151 223.665342 462.30572 219.881469 421.916903 216.097596 381.528086 212.315072 341.139269 211.977828 337.552516 211.609559 333.964387 211.338415 330.372129 210.654484 321.332301 210.672021 312.242925 211.403165 303.207226 211.544807 301.463398 211.740409 299.726452 211.906333 297.984 211.911729 297.92757 211.915775 297.882151 211.919822 297.828473 211.929265 297.773419 211.937359 297.726624 211.948151 297.667441 212.622638 293.682925 213.301172 289.712172 214.186099 285.768946 215.81566 278.501849 217.911966 271.343484 220.44534 264.35028 221.106338 262.525247 221.849623 260.731871 222.521412 258.912344 222.62933 258.710021 222.727805 258.521463 222.801998 258.36043 224.473377 254.724129 226.174434 251.112602 228.036019 247.572645 231.509628 240.968946 235.377137 234.586839 239.592682 228.44972 240.733914 226.787097 241.918314 225.156129 243.093271 223.51828 243.121599 223.476989 243.137787 223.453591 243.164766 223.41643 243.265939 223.293935 243.363066 223.176946 243.493916 223.015914 246.063712 219.864086 248.622716 216.716387 251.32741 213.682925 256.4036 207.991742 261.792753 202.590968 267.444955 197.497118 270.244077 194.975656 273.183492 192.634495 276.02713 190.170839 276.331998 189.934107 276.635518 189.698753 276.944433 189.468903 278.865372 188.037505 280.786311 186.610236 282.742324 185.227011 289.171536 180.678194 295.832771 176.474839 302.682863 172.619699 306.156472 170.663914 309.678644 168.797591 313.243983 167.023484 314.901873 166.199054 316.569205 165.392516 318.244631 164.608 319.085042 164.212989 319.9295 163.826236 320.773958 163.44086 320.9156 163.377548 321.278474 163.21514 321.683167 163.034839 322.700293 162.621935 325.547978 161.430021 326.145574 161.194667 327.893845 160.502366 329.651558 159.832086 331.414668 159.181075 335.564113 157.651957 339.752678 156.235699 343.974968 154.932301 351.947406 152.471398 360.038554 150.417893 368.207943 148.763527 372.365482 147.921204 376.548651 147.288086 380.723727 146.558624 380.735867 146.555871 380.742612 146.555871 380.753404 146.553118 381.198566 146.496688 381.645076 146.440258 382.091587 146.386581 384.723436 146.071398 387.359332 145.797505 389.999274 145.563527 398.719044 144.791398 407.473888 144.461075 416.224684 144.561548 425.257416 144.666151 434.287451 145.227699 443.263526 146.268215 445.458308 146.522839 449.004761 147.139441 444.642178 146.411355 446.577956 146.734796 448.523177 147.004559 450.458955 147.334882 454.934852 148.097376 459.390515 148.980989 463.821895 149.982968 471.911695 151.813505 479.915159 154.044559 487.790471 156.676129 491.666075 157.971269 495.510651 159.364129 499.318806 160.851957 500.928133 161.480946 502.519922 162.149849 504.122504 162.793979 505.161214 163.275699 506.212065 163.734021 507.252124 164.217118 521.837235 170.985979 535.769442 179.239914 548.680478 188.928 549.500653 189.543226 550.326223 190.203871 550.770036 190.563097 550.505639 190.345634 550.078011 189.990537 549.418367 189.44 550.784873 190.582366 552.182412 191.686194 553.544876 192.834065 556.702828 195.49729 559.786582 198.251355 562.78805 201.094882 568.506352 206.510796 573.927877 212.252903 579.002718 218.299183 580.121018 219.630107 581.206943 220.987183 582.303663 222.337376 582.442604 222.508043 582.601782 222.688344 582.76636 222.874151 585.013749 226.193893 587.433812 229.381505 589.619146 232.752172 593.663375 238.989764 597.35012 245.468215 600.633522 252.155871 601.513057 253.949247 602.366954 255.756387 603.188483 257.578667 603.718629 258.754065 604.219096 259.62529 604.437633 259.93772 605.752881 262.874839 606.604083 266.268903 607.573994 269.208774 609.907723 276.284559 611.796286 283.514495 613.211362 290.839398 613.59582 292.824086 613.919572 294.817032 614.255465 296.809979 614.274355 296.917333 614.308077 297.060473 614.339104 297.195355 614.648018 301.252817 615.136348 305.277247 615.321158 309.349849 615.692126 317.539097 615.505969 325.768258 614.699277 333.927226 614.406554 336.891871 614.042328 339.852387 613.714529 342.812903 609.186024 383.686194 604.657513 424.56086 600.129008 465.434151 598.083961 483.900559 596.037567 502.366968 593.992521 520.833376 593.759151 522.932301 593.490707 525.033979 593.243842 527.138409 592.483021 529.030882 592.062141 531.164215 591.46994 533.115871 585.452167 552.957246 578.615565 572.564647 570.943946 591.803182 570.384125 593.208428 569.814857 594.610925 569.248288 596.013417 567.81298 599.319396 566.427583 602.646021 564.966643 605.940989 562.194502 612.18684 559.2996 618.377636 556.241478 624.483096 550.343761 636.254968 543.876775 647.813508 536.209208 658.489807 536.120175 658.612299 536.031143 658.734797 535.940762 658.857289 535.24604 659.698235 534.582344 660.573594 533.883576 661.411786 532.146097 663.494193 530.342518 665.522925 528.44586 667.458064 526.988968 668.945893 525.436299 670.30985 523.913307 671.71785 523.036473 672.286278 522.182572 672.902882 521.294947 673.456171 521.254478 673.482321 521.218056 673.512604 521.176238 673.538754 517.590664 675.604647 514.540632 678.56516 512.58462 682.344604 511.698344 684.054021 511.027903 685.815743 510.524736 687.598107 508.425732 694.084818 508.773767 701.320257 512.58462 707.351396 513.071599 708.123529 513.603095 708.857118 514.160222 709.56731 516.011014 712.147957 518.396001 714.424428 521.294947 716.239829 554.648339 737.127225 588.00038 758.014626 621.353768 778.902021 674.507404 812.190278 727.662393 845.47854 780.817376 878.766797 789.001604 883.892299 797.18448 889.017807 805.368708 894.141936L805.368708 973.873551 749.36604 973.873551 749.36604 973.873551ZM224.449967 259.245419C223.129546 262.413061 221.765111 265.706928 221.771399 265.658842 221.966318 263.837598 223.204999 261.457359 224.449967 259.245419L224.449967 259.245419ZM586.673745 228.266613C586.654882 228.228129 584.957197 225.829314 583.158908 223.321463 584.542208 224.937776 585.843766 226.618229 586.673745 228.266613L586.673745 228.266613ZM615.325518 304.142494C615.294081 304.270488 614.872802 300.942645 614.457813 297.732129 615.09916 300.036021 615.721644 302.563901 615.325518 304.142494L615.325518 304.142494ZM839.835001 857.593118C832.067611 852.592861 824.174759 847.786668 816.348009 842.884128 783.897083 822.562406 751.446156 802.23931 718.99523 781.917594 681.913274 758.69454 644.831318 735.471481 607.749363 712.248428 596.277685 705.063914 584.889646 697.653679 573.42471 690.385203 582.755565 678.354583 590.415042 664.754925 597.11675 651.587438 610.081738 626.11269 620.609137 599.229936 629.911665 572.16 634.341694 559.26916 639.643163 546.048 641.271377 532.418065 642.695896 520.500301 643.915366 508.552258 645.237361 496.623484 650.273081 451.164215 655.310153 405.706322 660.345872 360.24843 661.705642 347.976946 663.524056 335.632516 663.958426 323.277075 665.204882 287.760516 656.139771 252.120086 639.430025 221.050495 605.617982 158.179097 540.89015 115.683097 472.94366 101.377376 399.783385 85.97471 319.303576 98.871054 257.496269 142.962236 200.50615 183.616688 160.777507 248.431484 162.313989 320.897376 162.586482 333.768946 164.2727 346.703828 165.471938 359.509333 167.562848 381.822624 169.652409 404.135914 171.743319 426.449204 175.049656 461.755183 177.811006 497.165764 181.669073 532.415312 183.745144 551.38546 191.137524 569.895914 198.517762 587.281893 205.59718 603.956299 214.31695 619.862711 224.276427 634.919914 238.315203 656.143139 254.421957 676.215743 272.39704 694.171529 229.617017 721.285508 186.835645 748.400861 144.055621 775.51484 111.040823 796.439396 78.027374 817.363957 45.013925 838.287139 35.788289 844.135225 26.561305 849.981936 17.337018 855.830021 15.761416 856.827872 14.143996 857.777551 12.603467 858.829075 2.718183 865.57316 0.480235 875.031396 0.480235 885.907267L0.480235 998.647743C0.480235 1012.039572 11.605226 1023.421936 24.761773 1023.421936L105.045981 1023.421936 297.763153 1023.421936 529.398236 1023.421936 730.752889 1023.421936C763.226748 1023.421936 795.812573 1024.228471 828.278342 1023.421936 828.735644 1023.410925 829.192947 1023.421936 829.650249 1023.421936 842.777115 1023.421936 853.931784 1012.071225 853.931784 998.647743L853.931784 894.129551C853.931784 889.571096 854.198881 884.917679 853.931784 880.366107 853.328794 870.110968 847.919406 862.798449 839.835001 857.593118L839.835001 857.593118Z" p-id="186151"></path><path d="M1130.81821 786.774711C1130.215219 776.519572 1124.805831 769.207053 1116.720079 764.001722 1108.954037 759.00146 1101.059837 754.195267 1093.233087 749.292733 1060.783514 728.971011 1028.332582 708.647914 995.881655 688.326193 958.7997 665.103139 921.717744 641.880086 884.635788 618.657032 873.235607 611.51931 861.93525 604.045765 850.528321 596.77454 863.402933 580.290064 873.16951 560.648257 881.516964 542.393807 894.178433 514.707269 904.852868 485.998107 913.900442 456.878796 917.294457 445.952 918.544961 435.328 919.803554 423.973161 922.589184 398.825979 925.374814 373.677419 928.161797 348.530236 931.167313 321.399742 934.172828 294.270624 937.178344 267.140129 939.304324 247.95114 941.953708 229.001634 940.383507 209.615828 936.865377 166.149505 919.978916 126.634667 892.988637 93.029849 866.231733 59.716817 829.886318 35.771183 790.85914 20.171699 757.335778 6.771613 721.082093 1.266237 685.185886 1.291011 651.113494 1.313032 615.288783 10.91028 586.660848 29.920344 576.458553 36.69471 566.856553 44.659613 558.424118 53.61686 549.618014 62.970495 548.626518 79.476989 558.424118 88.653075 567.955968 97.580043 583.363956 98.637075 592.763608 88.653075 596.604136 84.572215 600.647012 80.759742 604.91112 77.14271 604.982617 77.082151 605.17417 76.932129 605.39945 76.757333 606.01593 76.312774 606.867133 75.693419 607.138277 75.497979 609.513822 73.788559 611.943327 72.157591 614.424091 70.609204 618.40626 68.119398 622.519285 65.84843 626.726734 63.781161 628.469609 62.923699 630.269144 61.950624 632.098353 61.256946 633.64158 60.71329 635.701464 59.985204 636.417768 59.727828 644.131204 56.96 652.052378 54.803269 660.077428 53.212215 661.693499 52.891527 663.313618 52.594237 664.937785 52.318968 665.241304 52.268043 665.544823 52.221247 665.848342 52.173075 668.627224 52.006538 671.435792 51.490409 674.209285 51.281204 682.184418 50.679742 690.195979 50.832516 698.183254 51.076129 703.204136 51.228903 708.220971 51.528946 713.224321 51.972129 715.535112 52.177204 717.844555 52.409806 720.149951 52.676817 720.878398 52.762151 721.606845 52.855742 722.333944 52.946581 719.664322 52.620387 723.394237 53.100731 724.441039 53.267269 734.640635 54.885849 744.743106 57.121032 754.676952 59.979699 763.31983 62.465376 771.741475 65.518107 780.088929 68.859871 780.114561 68.909419 784.161485 70.632602 784.980313 71.016602 787.212865 72.062624 789.429226 73.14443 791.629404 74.260645 795.990641 76.473806 800.284424 78.823226 804.502668 81.306151 812.291643 85.890753 819.671886 91.024516 826.928015 96.415656 827.487841 96.856086 828.813883 97.891097 829.74872 98.67286 831.336464 100.001032 832.908019 101.351226 834.459341 102.726194 838.195998 106.037678 841.819346 109.484043 845.318586 113.057032 848.376708 116.179957 851.340407 119.400602 854.197534 122.716215 855.711081 124.47243 857.196301 126.256172 858.649147 128.066065 858.927039 128.412903 859.276423 128.799656 859.620411 129.194667 859.743167 129.376344 859.909093 129.615828 860.131673 129.926882 865.483054 137.396301 870.460766 145.083183 874.789629 153.222882 876.802296 157.006452 878.620715 160.878107 880.422944 164.769032 880.642824 165.246624 880.814145 165.607226 880.947696 165.886624 881.036725 166.127484 881.141949 166.411011 881.271447 166.752344 882.177962 169.156817 883.085819 171.558537 883.915436 173.99329 886.779311 182.402753 889.01321 191.037935 890.56858 199.799742 890.653567 200.280086 891.054209 202.908903 891.290279 204.382968 891.425178 205.602409 891.618083 207.298065 891.67069 207.870624 892.123944 212.846107 892.358667 217.839484 892.385646 222.835613 892.416674 228.927312 892.126645 235.02314 891.502069 241.081806 890.928753 246.650495 890.269109 252.212301 889.652628 257.775484 886.953326 282.134021 884.255378 306.493935 881.556081 330.852473 878.6423 357.164043 875.725813 383.475613 872.812032 409.787183 871.932497 417.723183 871.052967 425.660559 870.173437 433.596559 870.089798 433.812645 869.992674 434.081032 869.880708 434.412731 862.687976 455.509333 856.354541 476.761463 848.110958 497.50572 847.383865 499.336258 846.640581 501.16129 845.902692 502.987699 845.752956 503.335914 845.554656 503.801118 845.288906 504.425979 843.65125 508.286624 841.970429 512.129376 840.238349 515.948731 836.780927 523.57643 833.129251 531.117419 829.199689 538.505634 825.566903 545.335053 821.700743 552.043353 817.469009 558.506668 815.558861 561.423139 813.333051 564.163438 811.479563 567.107438 811.919328 566.408257 812.260621 565.868733 812.541208 565.428299 812.086601 566.108214 811.556454 566.870711 811.182786 567.323529 809.970063 568.79346 808.723607 570.235872 807.436687 571.638364 805.413225 573.846021 803.264307 575.887139 801.074925 577.918626 801.062783 577.929636 801.045245 577.942021 801.033108 577.954406 800.082076 578.587529 799.151287 579.259182 798.181376 579.864775 782.459079 589.676733 782.499549 612.828214 798.181376 622.648428 831.533417 643.535829 864.886806 664.423225 898.238847 685.310626 951.393835 718.598882 1004.548818 751.887139 1057.702454 785.175396 1065.886682 790.300904 1074.070911 795.426406 1082.255134 800.55054L1082.255134 880.28215 954.074247 880.28215 932.172299 880.28215C919.471702 880.28215 907.303958 891.676904 907.890758 905.056342 908.480259 918.478449 918.559798 929.83054 932.172299 929.83054L1084.634726 929.83054 1106.536674 929.83054C1119.237266 929.83054 1131.405016 918.435786 1130.81821 905.056342L1130.81821 800.53815C1130.81821 795.979701 1131.085307 791.326278 1130.81821 786.774711" p-id="186152"></path><path d="M812.541208 580.021577C822.99454 564.742839 829.879592 553.377717 812.541208 580.021577" p-id="186153"></path></svg>