<?xml version="1.0" standalone="no"?><!DOCTYPE svg PUBLIC "-//W3C//DTD SVG 1.1//EN" "http://www.w3.org/Graphics/SVG/1.1/DTD/svg11.dtd"><svg t="1528698920628" class="icon" style="" viewBox="0 0 1024 1024" version="1.1" xmlns="http://www.w3.org/2000/svg" p-id="165563" xmlns:xlink="http://www.w3.org/1999/xlink" width="200" height="200"><defs><style type="text/css"></style></defs><path d="M900.797 843.643h-57.82v-47.975H203.653v47.975h-55.967v46.136h-42.834v48.03H941.83v-48.03h-41.032v-46.136z m-559.2-86.784V516.762h27.954v-31.565c0-19.292-15.764-34.94-35.271-34.94H210.908c-19.476 0-35.24 15.648-35.24 34.94v31.565h29.839v240.097h136.09z m501.38 0V516.762h29.809v-31.509c0-19.292-15.765-34.939-35.21-34.939H714.26c-19.476 0-35.215 15.647-35.215 34.94v31.533h29.809V756.86h134.123z m-251.643 0V516.762h29.84v-31.565c0-19.292-15.765-34.94-35.216-34.94H462.587c-19.477 0-35.241 15.648-35.241 34.94v31.565h27.93v240.097h136.058z m332.268-429.502L552.765 124.17a67.108 67.108 0 0 0-64.496 0l-370.78 203.213c-23.91 13.092-38.733 38.01-38.733 65.075v22.784h883.548v-22.784c0.005-27.064-14.822-52.009-38.702-65.1z m-254.94-17.812a7.992 7.992 0 0 1-7.788 5.985h-280.96a7.997 7.997 0 0 1-7.787-5.985 7.93 7.93 0 0 1 3.906-8.975l112.041-61.507a67.328 67.328 0 0 1 64.61 0l112.015 61.507c3.236 1.756 4.869 5.432 3.963 8.975z" p-id="165564"></path></svg>