<?xml version="1.0" standalone="no"?><!DOCTYPE svg PUBLIC "-//W3C//DTD SVG 1.1//EN" "http://www.w3.org/Graphics/SVG/1.1/DTD/svg11.dtd"><svg t="1528627329381" class="icon" style="" viewBox="0 0 1024 1024" version="1.1" xmlns="http://www.w3.org/2000/svg" p-id="1457" xmlns:xlink="http://www.w3.org/1999/xlink" width="200" height="200"><defs><style type="text/css"></style></defs><path d="M0 692.705h30.118v-120.47H0v120.47z m0-511.998v60.235h60.235v602.351h60.238V180.707H0z m0 271.058h30.118v-120.47H0v120.47z m768.001-90.353c-74.851 0-135.529 60.678-135.529 135.529S693.15 632.47 768.001 632.47c74.848 0 135.526-60.678 135.526-135.529s-60.678-135.529-135.526-135.529z m0 210.823c-41.583 0-75.297-33.708-75.297-75.294 0-41.583 33.714-75.294 75.297-75.294 41.58 0 75.294 33.711 75.294 75.294 0 41.587-33.714 75.294-75.294 75.294z m124.232-331.293H150.591v481.881h60.232v60.235h331.296v-60.235h60.235v60.235h331.29v-60.235H1024V361.412s0.199-120.47-131.767-120.47zM542.119 632.47H331.296v-30.118h210.823v30.118z m0-120.47H210.823v-30.118h331.296V512z m0-120.47H331.296v-30.118h210.823v30.118z m225.882 271.058c-91.485 0-165.647-74.161-165.647-165.647s74.161-165.647 165.647-165.647c91.482 0 165.644 74.161 165.644 165.647s-74.162 165.647-165.644 165.647z" p-id="1458"></path></svg>