<?xml version="1.0" standalone="no"?><!DOCTYPE svg PUBLIC "-//W3C//DTD SVG 1.1//EN" "http://www.w3.org/Graphics/SVG/1.1/DTD/svg11.dtd"><svg t="1528681473542" class="icon" style="" viewBox="0 0 1024 1024" version="1.1" xmlns="http://www.w3.org/2000/svg" p-id="2993" xmlns:xlink="http://www.w3.org/1999/xlink" width="200" height="200"><defs><style type="text/css"></style></defs><path d="M972.8 947.2 972.8 407.2l-120.8 0L852 212 514.4 26.4 172 212l0 195.2L51.2 407.2l0 540L0 947.2l0 54.4 51.2 0 920.8 0 51.2 0 0-54.4L972.8 947.2zM404 247.2c0-10.4 8.8-19.2 19.2-19.2l44 0L467.2 184c0-10.4 8.8-19.2 19.2-19.2l52 0c10.4 0 19.2 8.8 19.2 19.2l0 44 44 0c10.4 0 19.2 8.8 19.2 19.2l0 52c0 10.4-8.8 19.2-19.2 19.2l-44 0 0 44c0 11.2-8.8 19.2-19.2 19.2l-52 0c-10.4 0-19.2-8.8-19.2-19.2l0-44-44 0c-10.4 0-19.2-8.8-19.2-19.2L404 247.2zM397.6 485.6l93.6 0 0 93.6L397.6 579.2 397.6 485.6zM218.4 908.8 124.8 908.8l0-93.6 93.6 0L218.4 908.8zM218.4 711.2 124.8 711.2 124.8 616.8l93.6 0L218.4 711.2zM218.4 580 124.8 580 124.8 485.6l93.6 0L218.4 580zM354.4 908.8 261.6 908.8l0-93.6 93.6 0 0 93.6L354.4 908.8zM354.4 711.2 261.6 711.2 261.6 616.8l93.6 0 0 94.4L354.4 711.2zM354.4 580 261.6 580 261.6 485.6l93.6 0 0 94.4L354.4 580zM397.6 616.8l93.6 0 0 93.6L397.6 710.4 397.6 616.8zM611.2 980.8 412.8 980.8l0-200 198.4 0C611.2 780.8 611.2 980.8 611.2 980.8zM626.4 711.2 533.6 711.2 533.6 616.8l93.6 0L626.4 711.2 626.4 711.2zM626.4 580 533.6 580 533.6 485.6l93.6 0L626.4 580 626.4 580zM762.4 908.8 669.6 908.8l0-93.6 93.6 0L762.4 908.8 762.4 908.8zM762.4 711.2 669.6 711.2 669.6 616.8l93.6 0L762.4 711.2 762.4 711.2zM762.4 580 669.6 580 669.6 485.6l93.6 0L762.4 580 762.4 580zM898.4 908.8l-93.6 0 0-93.6 93.6 0L898.4 908.8zM898.4 711.2l-93.6 0L804.8 616.8l93.6 0L898.4 711.2zM898.4 580l-93.6 0L804.8 485.6l93.6 0L898.4 580z" p-id="2994"></path></svg>