<?xml version="1.0" standalone="no"?><!DOCTYPE svg PUBLIC "-//W3C//DTD SVG 1.1//EN" "http://www.w3.org/Graphics/SVG/1.1/DTD/svg11.dtd"><svg t="1528687211085" class="icon" style="" viewBox="0 0 1024 1024" version="1.1" xmlns="http://www.w3.org/2000/svg" p-id="112984" xmlns:xlink="http://www.w3.org/1999/xlink" width="200" height="200"><defs><style type="text/css"></style></defs><path d="M775.398504 512 647.688867 512c-13.202697 0-23.943318-10.741645-23.943318-23.945365s10.740622-23.944342 23.943318-23.944342l127.709637 0c13.204743 0 23.945365 10.740622 23.945365 23.944342S788.60427 512 775.398504 512zM775.398504 432.182117 647.688867 432.182117c-30.803563 0-55.872518 25.067932-55.872518 55.872518 0 30.80561 25.068955 55.873542 55.872518 55.873542l127.709637 0c30.80561 0 55.872518-25.067932 55.872518-55.873542C831.271022 457.250048 806.204114 432.182117 775.398504 432.182117zM456.12697 304.473503l127.709637 0c13.202697 0 23.943318 10.740622 23.943318 23.944342s-10.740622 23.945365-23.943318 23.945365L456.12697 352.36321c-13.20372 0-23.945365-10.741645-23.945365-23.945365S442.92325 304.473503 456.12697 304.473503zM456.12697 384.291386l127.709637 0c30.803563 0 55.872518-25.067932 55.872518-55.873542 0-30.804586-25.068955-55.872518-55.872518-55.872518L456.12697 272.545326c-30.80561 0-55.872518 25.067932-55.872518 55.872518C400.255475 359.223454 425.322383 384.291386 456.12697 384.291386zM647.688867 144.837736l127.709637 0c13.204743 0 23.945365 10.740622 23.945365 23.944342s-10.740622 23.945365-23.945365 23.945365L647.688867 192.727443c-13.202697 0-23.943318-10.741645-23.943318-23.945365S634.48617 144.837736 647.688867 144.837736zM647.688867 224.655619l127.709637 0c30.80561 0 55.872518-25.067932 55.872518-55.873542 0-30.804586-25.066909-55.872518-55.872518-55.872518L647.688867 112.909559c-30.803563 0-55.872518 25.067932-55.872518 55.872518C591.817372 199.587688 616.886327 224.655619 647.688867 224.655619zM591.817372 879.162264c-60.549028 0-140.522454-37.196157-204.78199-67.081815-49.403177-22.978341-88.422865-41.12463-113.428376-41.12463-0.37453 0-0.686638 0.187265-1.061169 0.217964L272.545838 574.107523c2.448772 1.591241 5.192256 2.775206 8.325619 2.822278 113.242134 1.590218 167.649278 36.525891 207.369931 62.015426 22.074761 14.170744 39.519062 25.363667 59.895135 25.363667 5.735631 0 12.923334-0.249687 21.076014-0.561795 37.306674-1.340531 106.631576-3.897773 129.064494 21.966291 4.179183 4.801353 6.345522 10.804067 6.969739 17.84953L432.181605 703.56292c-8.822946 0-15.963577 7.140631-15.963577 15.963577 0 8.823969 7.140631 15.9646 15.963577 15.9646l282.542005 0c0.421602 0.155543 0.74906 0.467651 1.184989 0.607844 45.614897 13.017478 94.471628-26.830065 137.530306-62.061474 21.60711-17.677615 48.499597-39.674605 60.268642-39.674605 27.950586 0 45.271066 8.901741 45.271066 53.237505C958.980659 736.534869 703.515337 879.162264 591.817372 879.162264zM240.619708 831.271534l-175.599344 0L65.020364 496.036423l175.599344 0L240.619708 831.271534zM913.70857 602.434685c-23.166629 0-48.468898 20.687158-80.489172 46.877657-30.351262 24.848944-67.112514 54.921867-95.65764 57.21305-0.12382-16.243963-5.190209-30.243815-15.167444-41.748846-32.410154-37.383422-105.836467-34.670637-154.335041-32.924877-7.716752 0.280386-14.498202 0.530073-19.922748 0.530073-11.022031 0-24.289196-8.510838-42.637076-20.297278-40.548508-26.033933-101.814874-65.366753-224.192062-67.081815-3.149736-0.124843-6.112208 1.122567-8.762571 2.915399l0-67.845201c0-8.823969-7.139607-15.963577-15.963577-15.963577l-207.526497 0c-8.822946 0-15.9646 7.139607-15.9646 15.963577l0 367.162264c0 8.823969 7.141654 15.9646 15.9646 15.9646l207.526497 0c8.823969 0 15.963577-7.140631 15.963577-15.9646l0-44.570101c0.37453 0.030699 0.686638 0.217964 1.061169 0.217964 17.942651 0 57.789171 18.520819 99.958596 38.147832 67.112514 31.209816 150.641929 70.058612 218.251769 70.058612 115.969245 0 399.089417-146.650011 399.089417-223.490074C990.906789 631.071909 964.934255 602.434685 913.70857 602.434685z" p-id="112985"></path></svg>