<?xml version="1.0" standalone="no"?><!DOCTYPE svg PUBLIC "-//W3C//DTD SVG 1.1//EN" "http://www.w3.org/Graphics/SVG/1.1/DTD/svg11.dtd"><svg t="1528687960512" class="icon" style="" viewBox="0 0 1024 1024" version="1.1" xmlns="http://www.w3.org/2000/svg" p-id="162732" xmlns:xlink="http://www.w3.org/1999/xlink" width="200" height="200"><defs><style type="text/css"></style></defs><path d="M784.256 770.88l-95.424-151.296c-7.296-11.84-22.528-14.848-34.048-7.744l-48.64 41.216c-23.68 11.392-45.696-12.416-84.8-62.592L439.808 461.696C423.36 428.544 410.432 394.752 433.216 377.728l55.936-29.44L489.152 348.224C501.248 340.544 503.68 325.12 496.768 314.048L496.768 313.984l-95.36-151.36C393.984 150.912 378.816 147.584 367.36 154.88L317.568 193.984c-29.312 25.664-101.12 144.448 55.296 398.848 162.176 264.064 309.504 258.176 346.304 239.68l57.408-27.136 0-0.128C788.8 797.504 791.232 782.208 784.256 770.88L784.256 770.88z" p-id="162733"></path><path d="M512 0C229.696 0 0 229.696 0 512c0 282.368 229.696 512 512 512 282.24 0 512-229.632 512-512C1024 229.696 794.24 0 512 0M512 968.704c-251.84 0-456.704-204.8-456.704-456.704 0-251.712 204.864-456.64 456.704-456.64 251.776 0 456.704 204.992 456.704 456.64C968.704 763.904 763.776 968.704 512 968.704" p-id="162734"></path></svg>