<?xml version="1.0" standalone="no"?><!DOCTYPE svg PUBLIC "-//W3C//DTD SVG 1.1//EN" "http://www.w3.org/Graphics/SVG/1.1/DTD/svg11.dtd"><svg t="1528684998249" class="icon" style="" viewBox="0 0 1025 1024" version="1.1" xmlns="http://www.w3.org/2000/svg" p-id="14432" xmlns:xlink="http://www.w3.org/1999/xlink" width="200.1953125" height="200"><defs><style type="text/css"></style></defs><path d="M836.292787 946.724864l0-173.303808c15.818752 11.95008 28.198912 28.700672 34.31424 50.153472 29.759488 0 80.492544-7.08608 80.429056 36.521984-0.063488 44.013568-50.458624 35.878912-80.128 36.747264C863.813811 918.43584 851.499187 934.965248 836.292787 946.724864L836.292787 946.724864zM836.292787 714.508288l0-74.330112 11.882496-0.069632c8.701952-13.060096 13.983744-53.536768 19.623936-72.691712l-31.504384-0.055296 0-73.596928 50.071552-0.28672 18.016256-72.5504-68.087808-0.036864 0-73.115648 81.69472 0.07168 3.284992-0.024576 19.378176-73.291776-104.357888-0.04096L836.294835 201.527296c27.670528-0.02048 55.314432-0.083968 82.921472-0.210944 32.968704-0.1536 102.883328-12.148736 104.794112 34.525184 0.96256 23.478272-45.266944 187.611136-54.155264 224.227328-17.477632 71.9872-34.961408 153.096192-55.808 223.35488C904.315059 716.22656 876.302515 715.99104 836.292787 714.508288zM768.178355 820.150272c18.444288-0.344064 36.890624 10.463232 39.985152 34.072576 3.909632 29.796352-18.040832 45.756416-39.985152 45.940736l0 68.743168c24.233984 0.135168 48.56832-7.069696 68.112384-22.181888l0-173.303808c-19.275776-14.559232-43.661312-21.958656-68.112384-21.95456L768.178355 820.150272 768.178355 820.150272zM836.292787 201.527296l0 72.962048-68.077568-0.026624-0.034816 69.18144L768.180403 201.496576C790.898867 201.531392 813.602995 201.54368 836.292787 201.527296L836.292787 201.527296zM836.292787 347.774976l0 73.115648-68.087808-0.036864 0.200704 73.293824 67.887104-0.385024 0 73.596928-68.063232-0.116736-0.0512 70.514688L768.178355 347.713536 836.292787 347.774976 836.292787 347.774976zM836.292787 640.176128l0 74.330112c-9.793536-0.364544-20.303872-0.800768-31.444992-0.847872l-36.667392-0.002048 0-73.078784L836.292787 640.176128zM728.334515 866.957312c-4.540416-29.83936 17.651712-46.395392 39.84384-46.80704l0-68.685824c-43.53024 0.012288-87.236608 23.49056-102.524928 71.899136l-62.099456 0.059392 0 73.3184 62.283776-0.063488c13.258752 46.741504 57.624576 71.974912 102.340608 72.226816l0-68.743168C749.977779 900.313088 731.781299 889.614336 728.334515 866.957312L728.334515 866.957312zM768.178355 201.496576l0 142.147584-0.002048 4.069376 0.002048 0 0 290.045952-0.002048 2.820096 0.002048 0 0 73.078784-164.624384-0.004096 0-73.089024 91.570176 0.02048-0.227328-73.095168-91.342848-0.006144 0-73.302016 91.512832-0.01024 0.036864-73.330688-91.549696 0.018432 0-73.078784 91.471872 0.004096 0.100352-73.269248-91.572224-0.026624L603.553971 200.998912C658.450611 201.199616 713.351347 201.412608 768.178355 201.496576zM603.556019 200.998912l0 73.488384-91.506688-0.024576-0.057344 73.30816 91.564032 0.006144 0 73.078784-91.387904 0.018432-0.053248 41.224192-0.131072 32.090112 91.574272-0.01024 0 73.302016-91.37152-0.008192-0.176128 63.88736-0.024576 9.181184 91.574272 0.022528 0 73.089024-201.347072-0.008192 0-73.193472 36.64896-0.096256 0.088064-73.037824-36.737024-0.008192 0-73.168896 36.696064 0.028672 0.02048-73.248768-36.716544 0.063488 0-73.222144 36.706304 0.018432-0.198656-73.25696-36.507648-0.002048L402.213043 200.538112C469.217459 200.51968 536.381619 200.753152 603.556019 200.998912L603.556019 200.998912zM603.556019 823.425024l0 73.3184-98.605056 0.100352c-14.49984 43.44832-57.024512 72.677376-102.742016 72.833024l0-69.505024c21.942272-0.155648 43.886592-16.101376 39.981056-45.944832-3.088384-23.61344-21.53472-34.418688-39.981056-34.076672l0-69.48864c46.170112 0.485376 90.1632 30.09536 102.43072 72.853504L603.556019 823.425024zM402.208947 200.538112l0 73.986048-160.657408-0.004096 23.482368 73.172992 137.172992 0.07168 0 73.222144-114.853888 0.196608 23.422976 72.890368 91.430912 0.069632 0 73.168896L333.314227 567.296c3.190784 13.48608 16.83456 67.534848 25.499648 73.271296l43.393024-0.114688 0 73.193472-15.945728 0c-34.623488 0.03072-93.085696-6.678528-118.069248 21.538816-29.042688 32.796672-7.278592 71.706624 31.148032 84.000768 6.326272-6.744064 10.401792-18.470912 17.014784-26.707968 23.883776-29.7472 55.343104-42.135552 85.85216-41.816064l0 69.48864c-22.206464 0.411648-44.412928 16.975872-39.831552 46.80704 3.47136 22.6304 21.649408 33.34144 39.831552 33.214464l0 69.505024c-0.710656 0.002048-1.425408-0.002048-2.14016-0.014336-78.057472-1.28-98.162688-72.357888-102.641664-75.659264-28.80512-8.890368-56.332288-16.30208-78.58176-38.0416-65.875968-64.344064-37.302272-185.769984 62.857216-208.308224L118.640819 128.694272c-34.48832-3.627008-101.568512 12.945408-116.1216-23.97184-7.067648-17.936384 1.204224-38.785024 18.950144-46.381056 12.716032-5.441536 49.661952-3.305472 65.14688-3.30752 71.714816-0.004096 82.679808-9.437184 98.848768 40.568832 10.50624 32.487424 25.182208 73.271296 32.632832 105.814016C279.263411 200.78592 340.670643 200.556544 402.208947 200.538112z" p-id="14433"></path></svg>