<?xml version="1.0" standalone="no"?><!DOCTYPE svg PUBLIC "-//W3C//DTD SVG 1.1//EN" "http://www.w3.org/Graphics/SVG/1.1/DTD/svg11.dtd"><svg t="1528705970811" class="icon" style="" viewBox="0 0 1024 1024" version="1.1" xmlns="http://www.w3.org/2000/svg" p-id="167645" xmlns:xlink="http://www.w3.org/1999/xlink" width="200" height="200"><defs><style type="text/css"></style></defs><path d="M593.8462009622124 399.8589872203852c-30.294810522864193 0-54.56413440632098 12.050974573353086-66.6151076851358 30.29481181740246-18.24383594951111 18.24383594951111-30.294810522864193 48.538646472375305-30.29481181740246 84.85894492918518 0 36.32029845680987 6.025486639407407 66.61510897967406 18.24383724404938 84.85894492918518s30.294810522864193 30.294810522864193 60.589621045728386 30.294810522864193c18.24383594951111 0 30.294810522864193-6.025486639407407 48.53864776691358-12.050974573353086 18.24383594951111-6.025486639407407 30.294810522864193-12.050974573353086 42.34578509621728-24.26932388345679v-175.74337649777777c-12.050974573353086-6.025486639407407-30.294810522864193-12.050974573353086-36.32029845680987-12.050974573353086-12.218349310103703-0.16737473675061723-24.436698620207405-6.192861376158025-36.48767319356049-6.192862670696296z" p-id="167646"></path><path d="M915.0381460239802 54.39771956969878H108.96185397601982C48.37223293029149 54.39771956969878-0.1664148366222662 102.9363673366123-0.1664148366222662 163.52598838234076v696.9480232353185c0 60.589621045728386 48.538646472375305 109.12826881264196 109.12826881264196 109.12826881264196h806.0762920479604c60.589621045728386 0 109.12826881264196-48.538646472375305 109.12826881264196-109.12826881264196V163.52598838234076c0-60.589621045728386-48.538646472375305-109.12826881264196-109.12826881264196-109.12826881264196zM375.5896646314666 654.4358233024791c-24.26932388345679 18.24383594951111-54.56413440632098 30.294810522864193-96.90991950253829 30.294810522864193-24.26932388345679 0-42.34578509621728 0-66.61510897967406-6.025486639407407-12.050974573353086-12.050974573353086-30.294810522864193-18.24383594951111-42.34578509621728-24.26932388345679v-60.58962234026666c18.24383594951111 12.050974573353086 36.32029845680987 24.26932388345679 54.56413440632098 30.29481181740246 18.24383594951111 6.025486639407407 42.34578509621728 12.050974573353086 60.589621045728386 12.050974573353086 24.26932388345679 0 42.34578509621728-6.025486639407407 54.56413440632098-12.050974573353086 12.050974573353086-6.025486639407407 18.24383594951111-18.24383594951111 18.24383594951111-36.32029845680987 0-12.050974573353086-6.025486639407407-24.26932388345679-12.050974573353086-30.294810522864193-6.025486639407407 0-18.24383594951111-6.025486639407407-36.3202971622716-12.050974573353086-6.025486639407407 0-18.24383594951111-6.025486639407407-30.29481181740246-6.025487933945679s-24.26932388345679-6.025486639407407-30.294810522864193-6.025486639407407c-30.294810522864193-6.025486639407407-48.538646472375305-18.24383594951111-60.589621045728386-30.294810522864193-12.050974573353086-18.24383594951111-18.24383594951111-36.32029845680987-18.24383594951111-54.56413440632098 0-12.050974573353086 0-24.26932388345679 6.025486639407407-36.32029845680987s18.24383594951111-24.26932388345679 24.26932388345679-30.294810522864193c12.050974573353086-12.050974573353086 24.26932388345679-18.24383594951111 42.34578509621728-24.26932388345679 18.24383594951111 0 36.32029845680987-6.025486639407407 54.56413440632098-6.025486639407407 18.24383594951111 0 36.32029845680987 0 54.56413440632098 6.025486639407407 18.24383594951111 6.025486639407407 36.32029845680987 12.050974573353086 48.538646472375305 18.24383594951111v54.56413440632098c-12.050974573353086-6.025486639407407-30.294810522864193-18.24383594951111-48.538646472375305-24.26932258891852-18.24383594951111-6.025486639407407-42.34578509621728-6.025486639407407-60.58962234026666-6.025487933945679s-36.32029845680987 0-48.538646472375305 6.025487933945679c-12.050974573353086 12.050974573353086-18.24383594951111 18.24383594951111-18.24383594951111 36.3202971622716 0 12.050974573353086 6.025486639407407 24.26932388345679 12.050973278814814 30.29481181740246 6.025486639407407 6.025486639407407 18.24383594951111 12.050974573353086 36.32029845680987 12.050973278814814 12.050974573353086 0 18.24383594951111 6.025486639407407 30.294810522864193 6.025487933945679 12.050974573353086 0 24.26932388345679 6.025486639407407 30.29481181740246 6.025486639407407 30.294810522864193 6.025486639407407 48.538646472375305 18.24383594951111 60.589621045728386 30.29481181740246s18.24383594951111 30.294810522864193 18.24383594951111 54.56413440632098c-0.16737473675061723 30.294810522864193-12.218349310103703 54.396759669570365-36.48767189902222 72.64059561908148z m345.4612676506864 133.39759140156048h-54.56413440632098v-151.47405390885928c-18.24383594951111 12.050974573353086-30.294810522864193 24.26932388345679-48.53864776691358 30.29481181740246s-36.32029845680987 12.050974573353086-54.56413440632098 12.050974573353086c-36.32029845680987 0-66.61510897967406-12.050974573353086-90.88443156859259-42.345786390755556s-30.294810522864193-66.61510897967406-30.29481181740246-121.17924209145677c0-24.26932388345679 6.025486639407407-48.538646472375305 12.050974573353086-72.80797165037035 12.050974573353086-18.24383594951111 18.24383594951111-36.32029845680987 30.29481181740246-48.538646472375305s24.26932388345679-24.26932388345679 42.34578509621728-30.294810522864193c18.24383594951111-6.025486639407407 36.32029845680987-12.050974573353086 54.56413440632098-12.050974573353086 18.24383594951111 0 30.294810522864193 0 42.34578509621728 6.025486639407407 12.050974573353086 6.025486639407407 24.26932388345679 12.050974573353086 42.34578509621728 18.24383724404938l6.025486639407407-18.24383724404938h48.53864776691358v430.3202125798716z m133.39759140156048-115.15375545204937H799.8843892773925V236.16658529596043h54.56413440632098V672.6796592519902z" p-id="167647"></path></svg>