<?xml version="1.0" standalone="no"?><!DOCTYPE svg PUBLIC "-//W3C//DTD SVG 1.1//EN" "http://www.w3.org/Graphics/SVG/1.1/DTD/svg11.dtd"><svg t="1528707959144" class="icon" style="" viewBox="0 0 1024 1024" version="1.1" xmlns="http://www.w3.org/2000/svg" p-id="184062" xmlns:xlink="http://www.w3.org/1999/xlink" width="200" height="200"><defs><style type="text/css"></style></defs><path d="M618.698 656.578a16.16 16.16 0 0 0-13.67-3.318c-29.034 6.246-60.332 9.414-93.028 9.414-32.7 0-63.998-3.166-93.026-9.414a16.168 16.168 0 0 0-19.568 16.088c0.438 25.072 12.836 48.344 34.91 65.53 20.986 16.338 48.574 25.334 77.684 25.334s56.698-8.998 77.684-25.334c22.076-17.186 34.474-40.458 34.91-65.528a16.16 16.16 0 0 0-5.896-12.772zM512 727.876c-33.938 0-63.244-16-74.898-38.416 23.956 3.688 49.046 5.552 74.898 5.552 25.852 0 50.944-1.862 74.898-5.552-11.654 22.416-40.96 38.416-74.898 38.416z" p-id="184063"></path><path d="M1024 469.064a16.164 16.164 0 0 0-19.272-15.866l-119.1 23.306c-8.762 1.714-14.478 10.21-12.762 18.974s10.208 14.482 18.974 12.762l80.946-15.84c-11.586 9.608-30.2 21.188-60.06 33.084-27.848 11.094-92.024 37.456-149.364 61.098a63.312 63.312 0 0 0-12.694 5.234 85369.116 85369.116 0 0 0-72.518 29.958c-3.47-18.378-7.64-37.422-12.316-56.522-0.744-3.048-1.5-6.108-2.276-9.178-0.254-1.004-0.492-2.012-0.748-3.016l174.544-34.156a16.168 16.168 0 0 0 12.762-18.974 16.168 16.168 0 0 0-18.974-12.762l-176.834 34.604a989.314 989.314 0 0 0-13.156-42.332c-10.348-30.768-21.042-57.432-32.056-80.044 30.226-14.28 52.496-26.192 67.75-36.234 15.692-10.332 31.256-23.088 27.7-39.374-4.512-20.666-33.054-20.666-45.242-20.666-29.384 0-72.64 6.426-99.946 11.048V162.144c0-26.106-21.24-47.348-47.348-47.348-26.106 0-47.348 21.24-47.348 47.348v152.026c-27.312-4.62-70.574-11.046-99.946-11.046-12.186 0-40.734 0-45.246 20.664-3.554 16.284 12.008 29.042 27.704 39.374 15.254 10.044 37.524 21.954 67.75 36.236-11.014 22.612-21.708 49.274-32.056 80.042a991.092 991.092 0 0 0-13.156 42.332L19.272 453.196a16.148 16.148 0 0 0-13.38 3.384A16.174 16.174 0 0 0 0 469.064c0 7.158 4.014 41.992 76.862 76.686-9.372 9.198-15.2 21.996-15.2 36.136 0 27.934 22.726 50.662 50.662 50.662s50.662-22.726 50.662-50.662c0-0.168-0.01-0.332-0.012-0.498 12.486 5.114 25.762 10.566 39.274 16.12-14.918 11.648-24.536 29.782-24.536 50.132 0 35.066 28.528 63.596 63.596 63.596s63.596-28.53 63.596-63.596c0-2.718-0.192-5.392-0.524-8.02 15.032 6.21 27.544 11.386 35.978 14.878-3.506 23.362-5.402 43.354-5.49 57.848l-0.002 0.324v0.718l0.002 0.31c0.27 47.026 18.838 95.45 51.04 133.014 34.546 40.298 79.328 62.492 126.094 62.492 33 0 65.618-11.308 94.33-32.698a16.17 16.17 0 1 0-19.318-25.93c-23.088 17.202-49.026 26.292-75.012 26.292-82.75 0-144.61-86.428-144.8-163.846 0.036-15.668 2.426-38.504 6.872-65.388 0.038-0.194 0.096-0.382 0.13-0.58 5.378-32.342 13.206-67.714 22.634-102.29 0.024-0.088 0.034-0.178 0.056-0.27 4.994-18.266 10.544-36.704 16.612-54.75 11.892-35.354 24.478-65.382 37.14-89.134 0.222-0.348 0.464-0.676 0.662-1.044 13.488-24.97 26.902-42.602 39.876-52.456 6.416-4.876 12.546-7.678 18.264-8.326 0.856-0.09 1.708-0.148 2.552-0.148 0.846 0 1.696 0.058 2.554 0.148 5.712 0.644 11.84 3.448 18.256 8.32 12.972 9.848 26.384 27.482 39.882 52.458 0.198 0.366 0.438 0.694 0.66 1.04 12.664 23.75 25.252 53.78 37.144 89.14 6.064 18.032 11.61 36.456 16.602 54.71 0.026 0.104 0.036 0.208 0.064 0.308 9.432 34.59 17.262 69.962 22.638 102.292 0.032 0.192 0.088 0.378 0.128 0.566 4.448 26.886 6.836 49.726 6.872 65.396-0.088 36.106-13.598 74.374-37.098 105.05a16.17 16.17 0 1 0 25.668 19.664c27.594-36.014 43.512-81.162 43.766-124.032l0.002-0.32v-0.718l-0.002-0.324c-0.088-14.496-1.986-34.486-5.49-57.848 8.114-3.358 20.014-8.28 34.296-14.18a63.736 63.736 0 0 0-0.436 7.326c0 35.066 28.528 63.596 63.596 63.596s63.596-28.53 63.596-63.596c0-20.1-9.384-38.038-23.99-49.702 13.296-5.468 26.376-10.84 38.718-15.894 0.086 27.862 22.776 50.504 50.656 50.504 27.934 0 50.662-22.726 50.662-50.662 0-13.876-5.612-26.464-14.68-35.622 73.888-34.856 77.936-70 77.936-77.192zM112.324 600.208c-10.102 0-18.324-8.22-18.324-18.324 0-10.104 8.222-18.324 18.324-18.324 10.104 0 18.324 8.22 18.324 18.324 0 10.104-8.22 18.324-18.324 18.324z m128.984 78.69c-17.236 0-31.26-14.024-31.26-31.258s14.024-31.258 31.26-31.258c17.236 0 31.258 14.024 31.258 31.258s-14.022 31.258-31.258 31.258z m119.032-122.382a1268.146 1268.146 0 0 0-2.148 8.654c-4.682 19.124-8.858 38.192-12.336 56.604-50.596-20.93-189.934-78.508-234.578-96.292-29.862-11.898-48.476-23.476-60.06-33.084l309.978 60.66c-0.294 1.152-0.564 2.306-0.856 3.458z m69.922-185.634c-35.684-16.82-55.488-28.136-66.454-35.422l0.898-0.002c23.71 0 58.052 4.674 83.834 8.82-6.18 7.694-12.272 16.586-18.278 26.604z m96.748-62.536l-0.126-0.03a59.456 59.456 0 0 0-3.214-0.768c-0.36-0.076-0.722-0.142-1.084-0.212a55.596 55.596 0 0 0-2.672-0.454c-0.606-0.086-1.21-0.144-1.816-0.212-0.7-0.076-1.402-0.164-2.104-0.214a57.916 57.916 0 0 0-3.276-0.128c-0.24-0.002-0.478-0.028-0.718-0.028-0.23 0-0.462 0.024-0.692 0.026-1.102 0.012-2.204 0.05-3.304 0.128-0.71 0.05-1.414 0.14-2.122 0.216-0.6 0.066-1.196 0.126-1.796 0.21-0.892 0.126-1.78 0.286-2.672 0.454-0.364 0.068-0.73 0.138-1.096 0.214-1.06 0.222-2.12 0.476-3.176 0.756-0.052 0.016-0.106 0.024-0.158 0.036v-146.2c0-8.276 6.734-15.01 15.01-15.01 8.278 0 15.01 6.734 15.01 15.01v146.206z m48.452 35.93c25.782-4.144 60.12-8.82 83.832-8.82l0.896 0.004c-10.966 7.284-30.768 18.6-66.45 35.42-6.006-10.018-12.098-18.91-18.278-26.604z m205.636 334.622c-17.236 0-31.258-14.024-31.258-31.258 0-11.37 6.122-21.312 15.224-26.784l8.59-3.542a31.08 31.08 0 0 1 7.444-0.934c17.236 0 31.26 14.024 31.26 31.258s-14.024 31.26-31.26 31.26z m128.984-78.69c-10.104 0-18.324-8.22-18.324-18.324 0-10.104 8.22-18.324 18.324-18.324 10.104 0 18.324 8.22 18.324 18.324 0 10.104-8.22 18.324-18.324 18.324z" p-id="184064"></path></svg>