<?xml version="1.0" encoding="UTF-8"?>
<svg enable-background="new 0 0 62 38" version="1.1" viewBox="0 0 62 40.8" xml:space="preserve" xmlns="http://www.w3.org/2000/svg">
<style type="text/css">
	.st0{fill:#59B5ED;}
</style>
	<polygon class="st0" points="58.4 14.9 57.9 14.9 57.4 14.9 56.9 14.9 56.9 15.4 56.9 15.9 56.9 16.4 56.9 16.9 57.4 16.9 57.9 16.9 58.4 16.9 58.9 16.9 58.9 16.4 58.9 15.9 58.9 15.4 58.9 14.9"/>
	<polygon class="st0" points="51.5 14.9 51 14.9 50.5 14.9 50.5 15.4 50.5 15.9 50.5 16.4 50.5 16.9 51 16.9 51.5 16.9 51.9 16.9 52.4 16.9 52.4 16.4 52.4 15.9 52.4 15.4 52.4 14.9 51.9 14.9"/>
	<polygon class="st0" points="53.6 14.9 53.1 14.9 52.6 14.9 52.6 15.4 52.6 15.9 52.6 16.4 52.6 16.9 53.1 16.9 53.6 16.9 54.1 16.9 54.6 16.9 54.6 16.4 54.6 15.9 54.6 15.4 54.6 14.9 54.1 14.9"/>
	<polygon class="st0" points="55.7 14.9 55.2 14.9 54.8 14.9 54.8 15.4 54.8 15.9 54.8 16.4 54.8 16.9 55.2 16.9 55.7 16.9 56.2 16.9 56.7 16.9 56.7 16.4 56.7 15.9 56.7 15.4 56.7 14.9 56.2 14.9"/>
	<polygon class="st0" points="57.9 25.5 57.4 25.5 56.9 25.5 56.9 26.1 56.9 26.5 56.9 27 56.9 27.5 57.4 27.5 57.9 27.5 58.4 27.5 58.9 27.5 58.9 27 58.9 26.5 58.9 26.1 58.9 25.5 58.4 25.5"/>
	<polygon class="st0" points="57.9 17.1 57.4 17.1 56.9 17.1 56.9 17.6 56.9 18.1 56.9 18.5 56.9 19 57.4 19 57.9 19 58.4 19 58.9 19 58.9 18.5 58.9 18.1 58.9 17.6 58.9 17.1 58.4 17.1"/>
	<polygon class="st0" points="55.7 19.2 55.2 19.2 54.8 19.2 54.8 19.7 54.8 20.1 54.8 20.6 54.8 21.1 55.2 21.1 55.7 21.1 56.2 21.1 56.7 21.1 56.7 20.6 56.7 20.1 56.7 19.7 56.7 19.2 56.2 19.2"/>
	<polygon class="st0" points="53.6 21.3 53.1 21.3 52.6 21.3 52.6 21.8 52.6 22.2 52.6 22.8 52.6 23.3 53.1 23.3 53.6 23.3 54.1 23.3 54.6 23.3 54.6 22.8 54.6 22.2 54.6 21.8 54.6 21.3 54.1 21.3"/>
	<polygon class="st0" points="51.5 23.4 51 23.4 50.5 23.4 50.5 23.9 50.5 24.4 50.5 24.9 50.5 25.4 51 25.4 51.5 25.4 51.9 25.4 52.4 25.4 52.4 24.9 52.4 24.4 52.4 23.9 52.4 23.4 51.9 23.4"/>
	<polygon class="st0" points="51.5 25.5 51 25.5 50.5 25.5 50.5 26.1 50.5 26.5 50.5 27 50.5 27.5 51 27.5 51.5 27.5 51.9 27.5 52.4 27.5 52.4 27 52.4 26.5 52.4 26.1 52.4 25.5 51.9 25.5"/>
	<polygon class="st0" points="53.6 25.5 53.1 25.5 52.6 25.5 52.6 26.1 52.6 26.5 52.6 27 52.6 27.5 53.1 27.5 53.6 27.5 54.1 27.5 54.6 27.5 54.6 27 54.6 26.5 54.6 26.1 54.6 25.5 54.1 25.5"/>
	<polygon class="st0" points="55.7 25.5 55.2 25.5 54.8 25.5 54.8 26.1 54.8 26.5 54.8 27 54.8 27.5 55.2 27.5 55.7 27.5 56.2 27.5 56.7 27.5 56.7 27 56.7 26.5 56.7 26.1 56.7 25.5 56.2 25.5"/>
	<polygon class="st0" points="10.6 14.9 10.1 14.9 9.6 14.9 9.6 15.4 9.6 15.9 9.6 16.4 9.6 16.9 10.1 16.9 10.6 16.9 11.1 16.9 11.6 16.9 11.6 16.4 11.6 15.9 11.6 15.4 11.6 14.9 11.1 14.9"/>
	<polygon class="st0" points="4.2 14.9 3.7 14.9 3.2 14.9 3.2 15.4 3.2 15.9 3.2 16.4 3.2 16.9 3.7 16.9 4.2 16.9 4.7 16.9 5.1 16.9 5.1 16.4 5.1 15.9 5.1 15.4 5.1 14.9 4.7 14.9"/>
	<polygon class="st0" points="6.3 14.9 5.8 14.9 5.3 14.9 5.3 15.4 5.3 15.9 5.3 16.4 5.3 16.9 5.8 16.9 6.3 16.9 6.8 16.9 7.3 16.9 7.3 16.4 7.3 15.9 7.3 15.4 7.3 14.9 6.8 14.9"/>
	<polygon class="st0" points="8.4 14.9 8 14.9 7.5 14.9 7.5 15.4 7.5 15.9 7.5 16.4 7.5 16.9 8 16.9 8.4 16.9 8.9 16.9 9.4 16.9 9.4 16.4 9.4 15.9 9.4 15.4 9.4 14.9 8.9 14.9"/>
	<polygon class="st0" points="10.6 25.5 10.1 25.5 9.6 25.5 9.6 26.1 9.6 26.5 9.6 27 9.6 27.5 10.1 27.5 10.6 27.5 11.1 27.5 11.6 27.5 11.6 27 11.6 26.5 11.6 26.1 11.6 25.5 11.1 25.5"/>
	<polygon class="st0" points="10.6 17.1 10.1 17.1 9.6 17.1 9.6 17.6 9.6 18.1 9.6 18.5 9.6 19 10.1 19 10.6 19 11.1 19 11.6 19 11.6 18.5 11.6 18.1 11.6 17.6 11.6 17.1 11.1 17.1"/>
	<polygon class="st0" points="8.4 19.2 8 19.2 7.5 19.2 7.5 19.7 7.5 20.1 7.5 20.6 7.5 21.1 8 21.1 8.4 21.1 8.9 21.1 9.4 21.1 9.4 20.6 9.4 20.1 9.4 19.7 9.4 19.2 8.9 19.2"/>
	<polygon class="st0" points="6.3 21.3 5.8 21.3 5.3 21.3 5.3 21.8 5.3 22.2 5.3 22.8 5.3 23.3 5.8 23.3 6.3 23.3 6.8 23.3 7.3 23.3 7.3 22.8 7.3 22.2 7.3 21.8 7.3 21.3 6.8 21.3"/>
	<polygon class="st0" points="4.2 23.4 3.7 23.4 3.2 23.4 3.2 23.9 3.2 24.4 3.2 24.9 3.2 25.4 3.7 25.4 4.2 25.4 4.7 25.4 5.1 25.4 5.1 24.9 5.1 24.4 5.1 23.9 5.1 23.4 4.7 23.4"/>
	<polygon class="st0" points="4.2 25.5 3.7 25.5 3.2 25.5 3.2 26.1 3.2 26.5 3.2 27 3.2 27.5 3.7 27.5 4.2 27.5 4.7 27.5 5.1 27.5 5.1 27 5.1 26.5 5.1 26.1 5.1 25.5 4.7 25.5"/>
	<polygon class="st0" points="6.3 25.5 5.8 25.5 5.3 25.5 5.3 26.1 5.3 26.5 5.3 27 5.3 27.5 5.8 27.5 6.3 27.5 6.8 27.5 7.3 27.5 7.3 27 7.3 26.5 7.3 26.1 7.3 25.5 6.8 25.5"/>
	<polygon class="st0" points="8.4 25.5 8 25.5 7.5 25.5 7.5 26.1 7.5 26.5 7.5 27 7.5 27.5 8 27.5 8.4 27.5 8.9 27.5 9.4 27.5 9.4 27 9.4 26.5 9.4 26.1 9.4 25.5 8.9 25.5"/>
	<polygon class="st0" points="43.4 14.9 42.9 14.9 42.4 14.9 42.4 15.4 42.4 15.9 42.4 16.4 42.4 16.9 42.9 16.9 43.4 16.9 43.9 16.9 44.3 16.9 44.3 16.4 44.3 15.9 44.3 15.4 44.3 14.9 43.9 14.9"/>
	<polygon class="st0" points="45.5 14.9 45 14.9 44.5 14.9 44.5 15.4 44.5 15.9 44.5 16.4 44.5 16.9 45 16.9 45.5 16.9 46 16.9 46.5 16.9 46.5 16.4 46.5 15.9 46.5 15.4 46.5 14.9 46 14.9"/>
	<polygon class="st0" points="45.5 17.1 45 17.1 44.5 17.1 44.5 17.6 44.5 18.1 44.5 18.5 44.5 19 45 19 45.5 19 46 19 46.5 19 46.5 18.5 46.5 18.1 46.5 17.6 46.5 17.1 46 17.1"/>
	<polygon class="st0" points="47.6 14.9 47.1 14.9 46.6 14.9 46.6 15.4 46.6 15.9 46.6 16.4 46.6 16.9 47.1 16.9 47.6 16.9 48.1 16.9 48.6 16.9 48.6 16.4 48.6 15.9 48.6 15.4 48.6 14.9 48.1 14.9"/>
	<polygon class="st0" points="43.4 25.5 42.9 25.5 42.4 25.5 42.4 26.1 42.4 26.5 42.4 27 42.4 27.5 42.9 27.5 43.4 27.5 43.9 27.5 44.3 27.5 44.3 27 44.3 26.5 44.3 26.1 44.3 25.5 43.9 25.5"/>
	<polygon class="st0" points="45.5 25.5 45 25.5 44.5 25.5 44.5 26.1 44.5 26.5 44.5 27 44.5 27.5 45 27.5 45.5 27.5 46 27.5 46.5 27.5 46.5 27 46.5 26.5 46.5 26.1 46.5 25.5 46 25.5"/>
	<polygon class="st0" points="47.6 25.5 47.1 25.5 46.6 25.5 46.6 26.1 46.6 26.5 46.6 27 46.6 27.5 47.1 27.5 47.6 27.5 48.1 27.5 48.6 27.5 48.6 27 48.6 26.5 48.6 26.1 48.6 25.5 48.1 25.5"/>
	<polygon class="st0" points="45.5 19.2 45 19.2 44.5 19.2 44.5 19.7 44.5 20.1 44.5 20.6 44.5 21.1 45 21.1 45.5 21.1 46 21.1 46.5 21.1 46.5 20.6 46.5 20.1 46.5 19.7 46.5 19.2 46 19.2"/>
	<polygon class="st0" points="45.5 21.3 45 21.3 44.5 21.3 44.5 21.8 44.5 22.2 44.5 22.8 44.5 23.3 45 23.3 45.5 23.3 46 23.3 46.5 23.3 46.5 22.8 46.5 22.2 46.5 21.8 46.5 21.3 46 21.3"/>
	<polygon class="st0" points="45.5 23.4 45 23.4 44.5 23.4 44.5 23.9 44.5 24.4 44.5 24.9 44.5 25.4 45 25.4 45.5 25.4 46 25.4 46.5 25.4 46.5 24.9 46.5 24.4 46.5 23.9 46.5 23.4 46 23.4"/>
	<polygon class="st0" points="14.6 14.9 14.1 14.9 13.6 14.9 13.6 15.4 13.6 15.9 13.6 16.4 13.6 16.9 14.1 16.9 14.6 16.9 15.1 16.9 15.5 16.9 15.5 16.4 15.5 15.9 15.5 15.4 15.5 14.9 15.1 14.9"/>
	<polygon class="st0" points="16.7 14.9 16.2 14.9 15.7 14.9 15.7 15.4 15.7 15.9 15.7 16.4 15.7 16.9 16.2 16.9 16.7 16.9 17.2 16.9 17.7 16.9 17.7 16.4 17.7 15.9 17.7 15.4 17.7 14.9 17.2 14.9"/>
	<polygon class="st0" points="16.7 17.1 16.2 17.1 15.7 17.1 15.7 17.6 15.7 18.1 15.7 18.5 15.7 19 16.2 19 16.7 19 17.2 19 17.7 19 17.7 18.5 17.7 18.1 17.7 17.6 17.7 17.1 17.2 17.1"/>
	<polygon class="st0" points="18.8 14.9 18.3 14.9 17.8 14.9 17.8 15.4 17.8 15.9 17.8 16.4 17.8 16.9 18.3 16.9 18.8 16.9 19.3 16.9 19.8 16.9 19.8 16.4 19.8 15.9 19.8 15.4 19.8 14.9 19.3 14.9"/>
	<polygon class="st0" points="14.6 25.5 14.1 25.5 13.6 25.5 13.6 26.1 13.6 26.5 13.6 27 13.6 27.5 14.1 27.5 14.6 27.5 15.1 27.5 15.5 27.5 15.5 27 15.5 26.5 15.5 26.1 15.5 25.5 15.1 25.5"/>
	<polygon class="st0" points="16.7 25.5 16.2 25.5 15.7 25.5 15.7 26.1 15.7 26.5 15.7 27 15.7 27.5 16.2 27.5 16.7 27.5 17.2 27.5 17.7 27.5 17.7 27 17.7 26.5 17.7 26.1 17.7 25.5 17.2 25.5"/>
	<polygon class="st0" points="18.8 25.5 18.3 25.5 17.8 25.5 17.8 26.1 17.8 26.5 17.8 27 17.8 27.5 18.3 27.5 18.8 27.5 19.3 27.5 19.8 27.5 19.8 27 19.8 26.5 19.8 26.1 19.8 25.5 19.3 25.5"/>
	<polygon class="st0" points="16.7 19.2 16.2 19.2 15.7 19.2 15.7 19.7 15.7 20.1 15.7 20.6 15.7 21.1 16.2 21.1 16.7 21.1 17.2 21.1 17.7 21.1 17.7 20.6 17.7 20.1 17.7 19.7 17.7 19.2 17.2 19.2"/>
	<polygon class="st0" points="16.7 21.3 16.2 21.3 15.7 21.3 15.7 21.8 15.7 22.2 15.7 22.8 15.7 23.3 16.2 23.3 16.7 23.3 17.2 23.3 17.7 23.3 17.7 22.8 17.7 22.2 17.7 21.8 17.7 21.3 17.2 21.3"/>
	<polygon class="st0" points="16.7 23.4 16.2 23.4 15.7 23.4 15.7 23.9 15.7 24.4 15.7 24.9 15.7 25.4 16.2 25.4 16.7 25.4 17.2 25.4 17.7 25.4 17.7 24.9 17.7 24.4 17.7 23.9 17.7 23.4 17.2 23.4"/>
	<polygon class="st0" points="33.1 14.9 32.6 14.9 32.1 14.9 32.1 15.4 32.1 15.9 32.1 16.4 32.1 16.9 32.6 16.9 33.1 16.9 33.6 16.9 34.1 16.9 34.1 16.4 34.1 15.9 34.1 15.4 34.1 14.9 33.6 14.9"/>
	<polygon class="st0" points="33.1 17.1 32.6 17.1 32.1 17.1 32.1 17.6 32.1 18.1 32.1 18.5 32.1 19 32.6 19 33.1 19 33.6 19 34.1 19 34.1 18.5 34.1 18.1 34.1 17.6 34.1 17.1 33.6 17.1"/>
	<polygon class="st0" points="33.1 25.5 32.6 25.5 32.1 25.5 32.1 26.1 32.1 26.5 32.1 27 32.1 27.5 32.6 27.5 33.1 27.5 33.6 27.5 34.1 27.5 34.1 27 34.1 26.5 34.1 26.1 34.1 25.5 33.6 25.5"/>
	<polygon class="st0" points="35.2 25.5 34.7 25.5 34.3 25.5 34.3 26.1 34.3 26.5 34.3 27 34.3 27.5 34.7 27.5 35.2 27.5 35.7 27.5 36.2 27.5 36.2 27 36.2 26.5 36.2 26.1 36.2 25.5 35.7 25.5"/>
	<polygon class="st0" points="37.3 25.5 36.8 25.5 36.4 25.5 36.4 26.1 36.4 26.5 36.4 27 36.4 27.5 36.8 27.5 37.3 27.5 37.8 27.5 38.3 27.5 38.3 27 38.3 26.5 38.3 26.1 38.3 25.5 37.8 25.5"/>
	<polygon class="st0" points="39.5 25.5 39 25.5 38.5 25.5 38.5 26.1 38.5 26.5 38.5 27 38.5 27.5 39 27.5 39.5 27.5 40 27.5 40.4 27.5 40.4 27 40.4 26.5 40.4 26.1 40.4 25.5 40 25.5"/>
	<polygon class="st0" points="33.1 19.2 32.6 19.2 32.1 19.2 32.1 19.7 32.1 20.1 32.1 20.6 32.1 21.1 32.6 21.1 33.1 21.1 33.6 21.1 34.1 21.1 34.1 20.6 34.1 20.1 34.1 19.7 34.1 19.2 33.6 19.2"/>
	<polygon class="st0" points="33.1 21.3 32.6 21.3 32.1 21.3 32.1 21.8 32.1 22.2 32.1 22.8 32.1 23.3 32.6 23.3 33.1 23.3 33.6 23.3 34.1 23.3 34.1 22.8 34.1 22.2 34.1 21.8 34.1 21.3 33.6 21.3"/>
	<polygon class="st0" points="33.1 23.4 32.6 23.4 32.1 23.4 32.1 23.9 32.1 24.4 32.1 24.9 32.1 25.4 32.6 25.4 33.1 25.4 33.6 25.4 34.1 25.4 34.1 24.9 34.1 24.4 34.1 23.9 34.1 23.4 33.6 23.4"/>
	<polygon class="st0" points="39.5 23.4 39 23.4 38.5 23.4 38.5 23.9 38.5 24.4 38.5 24.9 38.5 25.4 39 25.4 39.5 25.4 40 25.4 40.4 25.4 40.4 24.9 40.4 24.4 40.4 23.9 40.4 23.4 40 23.4"/>
	<polygon class="st0" points="22.7 14.9 22.2 14.9 21.8 14.9 21.8 15.4 21.8 15.9 21.8 16.4 21.8 16.9 22.2 16.9 22.7 16.9 23.3 16.9 23.8 16.9 23.8 16.4 23.8 15.9 23.8 15.4 23.8 14.9 23.3 14.9"/>
	<polygon class="st0" points="22.7 17.1 22.2 17.1 21.8 17.1 21.8 17.6 21.8 18.1 21.8 18.5 21.8 19 22.2 19 22.7 19 23.3 19 23.8 19 23.8 18.5 23.8 18.1 23.8 17.6 23.8 17.1 23.3 17.1"/>
	<polygon class="st0" points="22.7 25.5 22.2 25.5 21.8 25.5 21.8 26.1 21.8 26.5 21.8 27 21.8 27.5 22.2 27.5 22.7 27.5 23.3 27.5 23.8 27.5 23.8 27 23.8 26.5 23.8 26.1 23.8 25.5 23.3 25.5"/>
	<polygon class="st0" points="24.9 25.5 24.4 25.5 23.9 25.5 23.9 26.1 23.9 26.5 23.9 27 23.9 27.5 24.4 27.5 24.9 27.5 25.4 27.5 25.8 27.5 25.8 27 25.8 26.5 25.8 26.1 25.8 25.5 25.4 25.5"/>
	<polygon class="st0" points="27 25.5 26.5 25.5 26 25.5 26 26.1 26 26.5 26 27 26 27.5 26.5 27.5 27 27.5 27.5 27.5 27.9 27.5 27.9 27 27.9 26.5 27.9 26.1 27.9 25.5 27.5 25.5"/>
	<polygon class="st0" points="29.1 25.5 28.6 25.5 28.2 25.5 28.2 26.1 28.2 26.5 28.2 27 28.2 27.5 28.6 27.5 29.1 27.5 29.6 27.5 30.1 27.5 30.1 27 30.1 26.5 30.1 26.1 30.1 25.5 29.6 25.5"/>
	<polygon class="st0" points="22.7 19.2 22.2 19.2 21.8 19.2 21.8 19.7 21.8 20.1 21.8 20.6 21.8 21.1 22.2 21.1 22.7 21.1 23.3 21.1 23.8 21.1 23.8 20.6 23.8 20.1 23.8 19.7 23.8 19.2 23.3 19.2"/>
	<polygon class="st0" points="22.7 21.3 22.2 21.3 21.8 21.3 21.8 21.8 21.8 22.2 21.8 22.8 21.8 23.3 22.2 23.3 22.7 23.3 23.3 23.3 23.8 23.3 23.8 22.8 23.8 22.2 23.8 21.8 23.8 21.3 23.3 21.3"/>
	<polygon class="st0" points="22.7 23.4 22.2 23.4 21.8 23.4 21.8 23.9 21.8 24.4 21.8 24.9 21.8 25.4 22.2 25.4 22.7 25.4 23.3 25.4 23.8 25.4 23.8 24.9 23.8 24.4 23.8 23.9 23.8 23.4 23.3 23.4"/>
	<polygon class="st0" points="29.1 23.4 28.6 23.4 28.2 23.4 28.2 23.9 28.2 24.4 28.2 24.9 28.2 25.4 28.6 25.4 29.1 25.4 29.6 25.4 30.1 25.4 30.1 24.9 30.1 24.4 30.1 23.9 30.1 23.4 29.6 23.4"/>
</svg>
