<svg xmlns="http://www.w3.org/2000/svg" enable-background="new 0 0 62 38" version="1.1" xml:space="preserve" width="56" height="13"><rect id="backgroundrect" width="100%" height="100%" x="0" y="0" fill="none" stroke="none"/>
<style type="text/css">
	.st0{fill:#59B5ED;}
</style>
<g class="currentLayer" style=""><title>Layer 1</title><polygon class="st0" points="55.20000147819519,0 54.70000147819519,0 54.20000147819519,0 53.70000147819519,0 53.70000147819519,0.5 53.70000147819519,1 53.70000147819519,1.5 53.70000147819519,2 54.20000147819519,2 54.70000147819519,2 55.20000147819519,2 55.70000147819519,2 55.70000147819519,1.5 55.70000147819519,1 55.70000147819519,0.5 55.70000147819519,0 " id="svg_1"/><polygon class="st0" points="48.299999952316284,0 47.799999952316284,0 47.299999952316284,0 47.299999952316284,0.5 47.299999952316284,1 47.299999952316284,1.5 47.299999952316284,2 47.799999952316284,2 48.299999952316284,2 48.70000147819519,2 49.20000147819519,2 49.20000147819519,1.5 49.20000147819519,1 49.20000147819519,0.5 49.20000147819519,0 48.70000147819519,0 " id="svg_2"/><polygon class="st0" points="50.39999842643738,0 49.89999842643738,0 49.39999842643738,0 49.39999842643738,0.5 49.39999842643738,1 49.39999842643738,1.5 49.39999842643738,2 49.89999842643738,2 50.39999842643738,2 50.89999842643738,2 51.39999842643738,2 51.39999842643738,1.5 51.39999842643738,1 51.39999842643738,0.5 51.39999842643738,0 50.89999842643738,0 " id="svg_3"/><polygon class="st0" points="52.50000071525574,0 52.00000071525574,0 51.59999918937683,0 51.59999918937683,0.5 51.59999918937683,1 51.59999918937683,1.5 51.59999918937683,2 52.00000071525574,2 52.50000071525574,2 53.00000071525574,2 53.50000071525574,2 53.50000071525574,1.5 53.50000071525574,1 53.50000071525574,0.5 53.50000071525574,0 53.00000071525574,0 " id="svg_4"/><polygon class="st0" points="54.70000147819519,10.600000381469727 54.20000147819519,10.600000381469727 53.70000147819519,10.600000381469727 53.70000147819519,11.200000762939453 53.70000147819519,11.600000381469727 53.70000147819519,12.100000381469727 53.70000147819519,12.600000381469727 54.20000147819519,12.600000381469727 54.70000147819519,12.600000381469727 55.20000147819519,12.600000381469727 55.70000147819519,12.600000381469727 55.70000147819519,12.100000381469727 55.70000147819519,11.600000381469727 55.70000147819519,11.200000762939453 55.70000147819519,10.600000381469727 55.20000147819519,10.600000381469727 " id="svg_5"/><polygon class="st0" points="54.70000147819519,2.200000762939453 54.20000147819519,2.200000762939453 53.70000147819519,2.200000762939453 53.70000147819519,2.700000762939453 53.70000147819519,3.200000762939453 53.70000147819519,3.6000003814697266 53.70000147819519,4.100000381469727 54.20000147819519,4.100000381469727 54.70000147819519,4.100000381469727 55.20000147819519,4.100000381469727 55.70000147819519,4.100000381469727 55.70000147819519,3.6000003814697266 55.70000147819519,3.200000762939453 55.70000147819519,2.700000762939453 55.70000147819519,2.200000762939453 55.20000147819519,2.200000762939453 " id="svg_6"/><polygon class="st0" points="52.50000071525574,4.30000114440918 52.00000071525574,4.30000114440918 51.59999918937683,4.30000114440918 51.59999918937683,4.80000114440918 51.59999918937683,5.200000762939453 51.59999918937683,5.700000762939453 51.59999918937683,6.200000762939453 52.00000071525574,6.200000762939453 52.50000071525574,6.200000762939453 53.00000071525574,6.200000762939453 53.50000071525574,6.200000762939453 53.50000071525574,5.700000762939453 53.50000071525574,5.200000762939453 53.50000071525574,4.80000114440918 53.50000071525574,4.30000114440918 53.00000071525574,4.30000114440918 " id="svg_7"/><polygon class="st0" points="50.39999842643738,6.399999618530273 49.89999842643738,6.399999618530273 49.39999842643738,6.399999618530273 49.39999842643738,6.899999618530273 49.39999842643738,7.30000114440918 49.39999842643738,7.899999618530273 49.39999842643738,8.399999618530273 49.89999842643738,8.399999618530273 50.39999842643738,8.399999618530273 50.89999842643738,8.399999618530273 51.39999842643738,8.399999618530273 51.39999842643738,7.899999618530273 51.39999842643738,7.30000114440918 51.39999842643738,6.899999618530273 51.39999842643738,6.399999618530273 50.89999842643738,6.399999618530273 " id="svg_8"/><polygon class="st0" points="48.299999952316284,8.5 47.799999952316284,8.5 47.299999952316284,8.5 47.299999952316284,9 47.299999952316284,9.5 47.299999952316284,10 47.299999952316284,10.5 47.799999952316284,10.5 48.299999952316284,10.5 48.70000147819519,10.5 49.20000147819519,10.5 49.20000147819519,10 49.20000147819519,9.5 49.20000147819519,9 49.20000147819519,8.5 48.70000147819519,8.5 " id="svg_9"/><polygon class="st0" points="48.299999952316284,10.600000381469727 47.799999952316284,10.600000381469727 47.299999952316284,10.600000381469727 47.299999952316284,11.200000762939453 47.299999952316284,11.600000381469727 47.299999952316284,12.100000381469727 47.299999952316284,12.600000381469727 47.799999952316284,12.600000381469727 48.299999952316284,12.600000381469727 48.70000147819519,12.600000381469727 49.20000147819519,12.600000381469727 49.20000147819519,12.100000381469727 49.20000147819519,11.600000381469727 49.20000147819519,11.200000762939453 49.20000147819519,10.600000381469727 48.70000147819519,10.600000381469727 " id="svg_10"/><polygon class="st0" points="50.39999842643738,10.600000381469727 49.89999842643738,10.600000381469727 49.39999842643738,10.600000381469727 49.39999842643738,11.200000762939453 49.39999842643738,11.600000381469727 49.39999842643738,12.100000381469727 49.39999842643738,12.600000381469727 49.89999842643738,12.600000381469727 50.39999842643738,12.600000381469727 50.89999842643738,12.600000381469727 51.39999842643738,12.600000381469727 51.39999842643738,12.100000381469727 51.39999842643738,11.600000381469727 51.39999842643738,11.200000762939453 51.39999842643738,10.600000381469727 50.89999842643738,10.600000381469727 " id="svg_11"/><polygon class="st0" points="52.50000071525574,10.600000381469727 52.00000071525574,10.600000381469727 51.59999918937683,10.600000381469727 51.59999918937683,11.200000762939453 51.59999918937683,11.600000381469727 51.59999918937683,12.100000381469727 51.59999918937683,12.600000381469727 52.00000071525574,12.600000381469727 52.50000071525574,12.600000381469727 53.00000071525574,12.600000381469727 53.50000071525574,12.600000381469727 53.50000071525574,12.100000381469727 53.50000071525574,11.600000381469727 53.50000071525574,11.200000762939453 53.50000071525574,10.600000381469727 53.00000071525574,10.600000381469727 " id="svg_12"/><polygon class="st0" points="7.400000333786011,0 6.900000333786011,0 6.400000333786011,0 6.400000333786011,0.5 6.400000333786011,1 6.400000333786011,1.5 6.400000333786011,2 6.900000333786011,2 7.400000333786011,2 7.900000333786011,2 8.40000033378601,2 8.40000033378601,1.5 8.40000033378601,1 8.40000033378601,0.5 8.40000033378601,0 7.900000333786011,0 " id="svg_13"/><polygon class="st0" points="0.9999997615814209,0 0.5,0 0,0 0,0.5 0,1 0,1.5 0,2 0.5,2 0.9999997615814209,2 1.499999761581421,2 1.8999998569488525,2 1.8999998569488525,1.5 1.8999998569488525,1 1.8999998569488525,0.5 1.8999998569488525,0 1.499999761581421,0 " id="svg_14"/><polygon class="st0" points="3.1000001430511475,0 2.6000001430511475,0 2.1000001430511475,0 2.1000001430511475,0.5 2.1000001430511475,1 2.1000001430511475,1.5 2.1000001430511475,2 2.6000001430511475,2 3.1000001430511475,2 3.6000001430511475,2 4.1000001430511475,2 4.1000001430511475,1.5 4.1000001430511475,1 4.1000001430511475,0.5 4.1000001430511475,0 3.6000001430511475,0 " id="svg_15"/><polygon class="st0" points="5.199999570846558,0 4.799999952316284,0 4.299999952316284,0 4.299999952316284,0.5 4.299999952316284,1 4.299999952316284,1.5 4.299999952316284,2 4.799999952316284,2 5.199999570846558,2 5.699999570846558,2 6.199999570846558,2 6.199999570846558,1.5 6.199999570846558,1 6.199999570846558,0.5 6.199999570846558,0 5.699999570846558,0 " id="svg_16"/><polygon class="st0" points="7.400000333786011,10.600000381469727 6.900000333786011,10.600000381469727 6.400000333786011,10.600000381469727 6.400000333786011,11.200000762939453 6.400000333786011,11.600000381469727 6.400000333786011,12.100000381469727 6.400000333786011,12.600000381469727 6.900000333786011,12.600000381469727 7.400000333786011,12.600000381469727 7.900000333786011,12.600000381469727 8.40000033378601,12.600000381469727 8.40000033378601,12.100000381469727 8.40000033378601,11.600000381469727 8.40000033378601,11.200000762939453 8.40000033378601,10.600000381469727 7.900000333786011,10.600000381469727 " id="svg_17"/><polygon class="st0" points="7.400000333786011,2.200000762939453 6.900000333786011,2.200000762939453 6.400000333786011,2.200000762939453 6.400000333786011,2.700000762939453 6.400000333786011,3.200000762939453 6.400000333786011,3.6000003814697266 6.400000333786011,4.100000381469727 6.900000333786011,4.100000381469727 7.400000333786011,4.100000381469727 7.900000333786011,4.100000381469727 8.40000033378601,4.100000381469727 8.40000033378601,3.6000003814697266 8.40000033378601,3.200000762939453 8.40000033378601,2.700000762939453 8.40000033378601,2.200000762939453 7.900000333786011,2.200000762939453 " id="svg_18"/><polygon class="st0" points="5.199999570846558,4.30000114440918 4.799999952316284,4.30000114440918 4.299999952316284,4.30000114440918 4.299999952316284,4.80000114440918 4.299999952316284,5.200000762939453 4.299999952316284,5.700000762939453 4.299999952316284,6.200000762939453 4.799999952316284,6.200000762939453 5.199999570846558,6.200000762939453 5.699999570846558,6.200000762939453 6.199999570846558,6.200000762939453 6.199999570846558,5.700000762939453 6.199999570846558,5.200000762939453 6.199999570846558,4.80000114440918 6.199999570846558,4.30000114440918 5.699999570846558,4.30000114440918 " id="svg_19"/><polygon class="st0" points="3.1000001430511475,6.399999618530273 2.6000001430511475,6.399999618530273 2.1000001430511475,6.399999618530273 2.1000001430511475,6.899999618530273 2.1000001430511475,7.30000114440918 2.1000001430511475,7.899999618530273 2.1000001430511475,8.399999618530273 2.6000001430511475,8.399999618530273 3.1000001430511475,8.399999618530273 3.6000001430511475,8.399999618530273 4.1000001430511475,8.399999618530273 4.1000001430511475,7.899999618530273 4.1000001430511475,7.30000114440918 4.1000001430511475,6.899999618530273 4.1000001430511475,6.399999618530273 3.6000001430511475,6.399999618530273 " id="svg_20"/><polygon class="st0" points="0.9999997615814209,8.5 0.5,8.5 0,8.5 0,9 0,9.5 0,10 0,10.5 0.5,10.5 0.9999997615814209,10.5 1.499999761581421,10.5 1.8999998569488525,10.5 1.8999998569488525,10 1.8999998569488525,9.5 1.8999998569488525,9 1.8999998569488525,8.5 1.499999761581421,8.5 " id="svg_21"/><polygon class="st0" points="0.9999997615814209,10.600000381469727 0.5,10.600000381469727 0,10.600000381469727 0,11.200000762939453 0,11.600000381469727 0,12.100000381469727 0,12.600000381469727 0.5,12.600000381469727 0.9999997615814209,12.600000381469727 1.499999761581421,12.600000381469727 1.8999998569488525,12.600000381469727 1.8999998569488525,12.100000381469727 1.8999998569488525,11.600000381469727 1.8999998569488525,11.200000762939453 1.8999998569488525,10.600000381469727 1.499999761581421,10.600000381469727 " id="svg_22"/><polygon class="st0" points="3.1000001430511475,10.600000381469727 2.6000001430511475,10.600000381469727 2.1000001430511475,10.600000381469727 2.1000001430511475,11.200000762939453 2.1000001430511475,11.600000381469727 2.1000001430511475,12.100000381469727 2.1000001430511475,12.600000381469727 2.6000001430511475,12.600000381469727 3.1000001430511475,12.600000381469727 3.6000001430511475,12.600000381469727 4.1000001430511475,12.600000381469727 4.1000001430511475,12.100000381469727 4.1000001430511475,11.600000381469727 4.1000001430511475,11.200000762939453 4.1000001430511475,10.600000381469727 3.6000001430511475,10.600000381469727 " id="svg_23"/><polygon class="st0" points="5.199999570846558,10.600000381469727 4.799999952316284,10.600000381469727 4.299999952316284,10.600000381469727 4.299999952316284,11.200000762939453 4.299999952316284,11.600000381469727 4.299999952316284,12.100000381469727 4.299999952316284,12.600000381469727 4.799999952316284,12.600000381469727 5.199999570846558,12.600000381469727 5.699999570846558,12.600000381469727 6.199999570846558,12.600000381469727 6.199999570846558,12.100000381469727 6.199999570846558,11.600000381469727 6.199999570846558,11.200000762939453 6.199999570846558,10.600000381469727 5.699999570846558,10.600000381469727 " id="svg_24"/><polygon class="st0" points="40.20000147819519,0 39.70000147819519,0 39.20000147819519,0 39.20000147819519,0.5 39.20000147819519,1 39.20000147819519,1.5 39.20000147819519,2 39.70000147819519,2 40.20000147819519,2 40.70000147819519,2 41.09999918937683,2 41.09999918937683,1.5 41.09999918937683,1 41.09999918937683,0.5 41.09999918937683,0 40.70000147819519,0 " id="svg_25"/><polygon class="st0" points="42.299999952316284,0 41.799999952316284,0 41.299999952316284,0 41.299999952316284,0.5 41.299999952316284,1 41.299999952316284,1.5 41.299999952316284,2 41.799999952316284,2 42.299999952316284,2 42.799999952316284,2 43.299999952316284,2 43.299999952316284,1.5 43.299999952316284,1 43.299999952316284,0.5 43.299999952316284,0 42.799999952316284,0 " id="svg_26"/><polygon class="st0" points="42.299999952316284,2.200000762939453 41.799999952316284,2.200000762939453 41.299999952316284,2.200000762939453 41.299999952316284,2.700000762939453 41.299999952316284,3.200000762939453 41.299999952316284,3.6000003814697266 41.299999952316284,4.100000381469727 41.799999952316284,4.100000381469727 42.299999952316284,4.100000381469727 42.799999952316284,4.100000381469727 43.299999952316284,4.100000381469727 43.299999952316284,3.6000003814697266 43.299999952316284,3.200000762939453 43.299999952316284,2.700000762939453 43.299999952316284,2.200000762939453 42.799999952316284,2.200000762939453 " id="svg_27"/><polygon class="st0" points="44.39999842643738,0 43.89999842643738,0 43.39999842643738,0 43.39999842643738,0.5 43.39999842643738,1 43.39999842643738,1.5 43.39999842643738,2 43.89999842643738,2 44.39999842643738,2 44.89999842643738,2 45.39999842643738,2 45.39999842643738,1.5 45.39999842643738,1 45.39999842643738,0.5 45.39999842643738,0 44.89999842643738,0 " id="svg_28"/><polygon class="st0" points="40.20000147819519,10.600000381469727 39.70000147819519,10.600000381469727 39.20000147819519,10.600000381469727 39.20000147819519,11.200000762939453 39.20000147819519,11.600000381469727 39.20000147819519,12.100000381469727 39.20000147819519,12.600000381469727 39.70000147819519,12.600000381469727 40.20000147819519,12.600000381469727 40.70000147819519,12.600000381469727 41.09999918937683,12.600000381469727 41.09999918937683,12.100000381469727 41.09999918937683,11.600000381469727 41.09999918937683,11.200000762939453 41.09999918937683,10.600000381469727 40.70000147819519,10.600000381469727 " id="svg_29"/><polygon class="st0" points="42.299999952316284,10.600000381469727 41.799999952316284,10.600000381469727 41.299999952316284,10.600000381469727 41.299999952316284,11.200000762939453 41.299999952316284,11.600000381469727 41.299999952316284,12.100000381469727 41.299999952316284,12.600000381469727 41.799999952316284,12.600000381469727 42.299999952316284,12.600000381469727 42.799999952316284,12.600000381469727 43.299999952316284,12.600000381469727 43.299999952316284,12.100000381469727 43.299999952316284,11.600000381469727 43.299999952316284,11.200000762939453 43.299999952316284,10.600000381469727 42.799999952316284,10.600000381469727 " id="svg_30"/><polygon class="st0" points="44.39999842643738,10.600000381469727 43.89999842643738,10.600000381469727 43.39999842643738,10.600000381469727 43.39999842643738,11.200000762939453 43.39999842643738,11.600000381469727 43.39999842643738,12.100000381469727 43.39999842643738,12.600000381469727 43.89999842643738,12.600000381469727 44.39999842643738,12.600000381469727 44.89999842643738,12.600000381469727 45.39999842643738,12.600000381469727 45.39999842643738,12.100000381469727 45.39999842643738,11.600000381469727 45.39999842643738,11.200000762939453 45.39999842643738,10.600000381469727 44.89999842643738,10.600000381469727 " id="svg_31"/><polygon class="st0" points="42.299999952316284,4.30000114440918 41.799999952316284,4.30000114440918 41.299999952316284,4.30000114440918 41.299999952316284,4.80000114440918 41.299999952316284,5.200000762939453 41.299999952316284,5.700000762939453 41.299999952316284,6.200000762939453 41.799999952316284,6.200000762939453 42.299999952316284,6.200000762939453 42.799999952316284,6.200000762939453 43.299999952316284,6.200000762939453 43.299999952316284,5.700000762939453 43.299999952316284,5.200000762939453 43.299999952316284,4.80000114440918 43.299999952316284,4.30000114440918 42.799999952316284,4.30000114440918 " id="svg_32"/><polygon class="st0" points="42.299999952316284,6.399999618530273 41.799999952316284,6.399999618530273 41.299999952316284,6.399999618530273 41.299999952316284,6.899999618530273 41.299999952316284,7.30000114440918 41.299999952316284,7.899999618530273 41.299999952316284,8.399999618530273 41.799999952316284,8.399999618530273 42.299999952316284,8.399999618530273 42.799999952316284,8.399999618530273 43.299999952316284,8.399999618530273 43.299999952316284,7.899999618530273 43.299999952316284,7.30000114440918 43.299999952316284,6.899999618530273 43.299999952316284,6.399999618530273 42.799999952316284,6.399999618530273 " id="svg_33"/><polygon class="st0" points="42.299999952316284,8.5 41.799999952316284,8.5 41.299999952316284,8.5 41.299999952316284,9 41.299999952316284,9.5 41.299999952316284,10 41.299999952316284,10.5 41.799999952316284,10.5 42.299999952316284,10.5 42.799999952316284,10.5 43.299999952316284,10.5 43.299999952316284,10 43.299999952316284,9.5 43.299999952316284,9 43.299999952316284,8.5 42.799999952316284,8.5 " id="svg_34"/><polygon class="st0" points="11.40000033378601,0 10.90000033378601,0 10.40000033378601,0 10.40000033378601,0.5 10.40000033378601,1 10.40000033378601,1.5 10.40000033378601,2 10.90000033378601,2 11.40000033378601,2 11.90000033378601,2 12.299999952316284,2 12.299999952316284,1.5 12.299999952316284,1 12.299999952316284,0.5 12.299999952316284,0 11.90000033378601,0 " id="svg_35"/><polygon class="st0" points="13.500000715255737,0 13.000000715255737,0 12.499999761581421,0 12.499999761581421,0.5 12.499999761581421,1 12.499999761581421,1.5 12.499999761581421,2 13.000000715255737,2 13.500000715255737,2 14.000000715255737,2 14.500000715255737,2 14.500000715255737,1.5 14.500000715255737,1 14.500000715255737,0.5 14.500000715255737,0 14.000000715255737,0 " id="svg_36"/><polygon class="st0" points="13.500000715255737,2.200000762939453 13.000000715255737,2.200000762939453 12.499999761581421,2.200000762939453 12.499999761581421,2.700000762939453 12.499999761581421,3.200000762939453 12.499999761581421,3.6000003814697266 12.499999761581421,4.100000381469727 13.000000715255737,4.100000381469727 13.500000715255737,4.100000381469727 14.000000715255737,4.100000381469727 14.500000715255737,4.100000381469727 14.500000715255737,3.6000003814697266 14.500000715255737,3.200000762939453 14.500000715255737,2.700000762939453 14.500000715255737,2.200000762939453 14.000000715255737,2.200000762939453 " id="svg_37"/><polygon class="st0" points="15.599999189376831,0 15.099999189376831,0 14.599999189376831,0 14.599999189376831,0.5 14.599999189376831,1 14.599999189376831,1.5 14.599999189376831,2 15.099999189376831,2 15.599999189376831,2 16.09999918937683,2 16.59999918937683,2 16.59999918937683,1.5 16.59999918937683,1 16.59999918937683,0.5 16.59999918937683,0 16.09999918937683,0 " id="svg_38"/><polygon class="st0" points="11.40000033378601,10.600000381469727 10.90000033378601,10.600000381469727 10.40000033378601,10.600000381469727 10.40000033378601,11.200000762939453 10.40000033378601,11.600000381469727 10.40000033378601,12.100000381469727 10.40000033378601,12.600000381469727 10.90000033378601,12.600000381469727 11.40000033378601,12.600000381469727 11.90000033378601,12.600000381469727 12.299999952316284,12.600000381469727 12.299999952316284,12.100000381469727 12.299999952316284,11.600000381469727 12.299999952316284,11.200000762939453 12.299999952316284,10.600000381469727 11.90000033378601,10.600000381469727 " id="svg_39"/><polygon class="st0" points="13.500000715255737,10.600000381469727 13.000000715255737,10.600000381469727 12.499999761581421,10.600000381469727 12.499999761581421,11.200000762939453 12.499999761581421,11.600000381469727 12.499999761581421,12.100000381469727 12.499999761581421,12.600000381469727 13.000000715255737,12.600000381469727 13.500000715255737,12.600000381469727 14.000000715255737,12.600000381469727 14.500000715255737,12.600000381469727 14.500000715255737,12.100000381469727 14.500000715255737,11.600000381469727 14.500000715255737,11.200000762939453 14.500000715255737,10.600000381469727 14.000000715255737,10.600000381469727 " id="svg_40"/><polygon class="st0" points="15.599999189376831,10.600000381469727 15.099999189376831,10.600000381469727 14.599999189376831,10.600000381469727 14.599999189376831,11.200000762939453 14.599999189376831,11.600000381469727 14.599999189376831,12.100000381469727 14.599999189376831,12.600000381469727 15.099999189376831,12.600000381469727 15.599999189376831,12.600000381469727 16.09999918937683,12.600000381469727 16.59999918937683,12.600000381469727 16.59999918937683,12.100000381469727 16.59999918937683,11.600000381469727 16.59999918937683,11.200000762939453 16.59999918937683,10.600000381469727 16.09999918937683,10.600000381469727 " id="svg_41"/><polygon class="st0" points="13.500000715255737,4.30000114440918 13.000000715255737,4.30000114440918 12.499999761581421,4.30000114440918 12.499999761581421,4.80000114440918 12.499999761581421,5.200000762939453 12.499999761581421,5.700000762939453 12.499999761581421,6.200000762939453 13.000000715255737,6.200000762939453 13.500000715255737,6.200000762939453 14.000000715255737,6.200000762939453 14.500000715255737,6.200000762939453 14.500000715255737,5.700000762939453 14.500000715255737,5.200000762939453 14.500000715255737,4.80000114440918 14.500000715255737,4.30000114440918 14.000000715255737,4.30000114440918 " id="svg_42"/><polygon class="st0" points="13.500000715255737,6.399999618530273 13.000000715255737,6.399999618530273 12.499999761581421,6.399999618530273 12.499999761581421,6.899999618530273 12.499999761581421,7.30000114440918 12.499999761581421,7.899999618530273 12.499999761581421,8.399999618530273 13.000000715255737,8.399999618530273 13.500000715255737,8.399999618530273 14.000000715255737,8.399999618530273 14.500000715255737,8.399999618530273 14.500000715255737,7.899999618530273 14.500000715255737,7.30000114440918 14.500000715255737,6.899999618530273 14.500000715255737,6.399999618530273 14.000000715255737,6.399999618530273 " id="svg_43"/><polygon class="st0" points="13.500000715255737,8.5 13.000000715255737,8.5 12.499999761581421,8.5 12.499999761581421,9 12.499999761581421,9.5 12.499999761581421,10 12.499999761581421,10.5 13.000000715255737,10.5 13.500000715255737,10.5 14.000000715255737,10.5 14.500000715255737,10.5 14.500000715255737,10 14.500000715255737,9.5 14.500000715255737,9 14.500000715255737,8.5 14.000000715255737,8.5 " id="svg_44"/><polygon class="st0" points="29.899998426437378,0 29.399998426437378,0 28.899998426437378,0 28.899998426437378,0.5 28.899998426437378,1 28.899998426437378,1.5 28.899998426437378,2 29.399998426437378,2 29.899998426437378,2 30.399998426437378,2 30.899998426437378,2 30.899998426437378,1.5 30.899998426437378,1 30.899998426437378,0.5 30.899998426437378,0 30.399998426437378,0 " id="svg_45"/><polygon class="st0" points="29.899998426437378,2.200000762939453 29.399998426437378,2.200000762939453 28.899998426437378,2.200000762939453 28.899998426437378,2.700000762939453 28.899998426437378,3.200000762939453 28.899998426437378,3.6000003814697266 28.899998426437378,4.100000381469727 29.399998426437378,4.100000381469727 29.899998426437378,4.100000381469727 30.399998426437378,4.100000381469727 30.899998426437378,4.100000381469727 30.899998426437378,3.6000003814697266 30.899998426437378,3.200000762939453 30.899998426437378,2.700000762939453 30.899998426437378,2.200000762939453 30.399998426437378,2.200000762939453 " id="svg_46"/><polygon class="st0" points="29.899998426437378,10.600000381469727 29.399998426437378,10.600000381469727 28.899998426437378,10.600000381469727 28.899998426437378,11.200000762939453 28.899998426437378,11.600000381469727 28.899998426437378,12.100000381469727 28.899998426437378,12.600000381469727 29.399998426437378,12.600000381469727 29.899998426437378,12.600000381469727 30.399998426437378,12.600000381469727 30.899998426437378,12.600000381469727 30.899998426437378,12.100000381469727 30.899998426437378,11.600000381469727 30.899998426437378,11.200000762939453 30.899998426437378,10.600000381469727 30.399998426437378,10.600000381469727 " id="svg_47"/><polygon class="st0" points="32.00000071525574,10.600000381469727 31.500000715255737,10.600000381469727 31.09999918937683,10.600000381469727 31.09999918937683,11.200000762939453 31.09999918937683,11.600000381469727 31.09999918937683,12.100000381469727 31.09999918937683,12.600000381469727 31.500000715255737,12.600000381469727 32.00000071525574,12.600000381469727 32.50000071525574,12.600000381469727 33.00000071525574,12.600000381469727 33.00000071525574,12.100000381469727 33.00000071525574,11.600000381469727 33.00000071525574,11.200000762939453 33.00000071525574,10.600000381469727 32.50000071525574,10.600000381469727 " id="svg_48"/><polygon class="st0" points="34.09999918937683,10.600000381469727 33.59999918937683,10.600000381469727 33.20000147819519,10.600000381469727 33.20000147819519,11.200000762939453 33.20000147819519,11.600000381469727 33.20000147819519,12.100000381469727 33.20000147819519,12.600000381469727 33.59999918937683,12.600000381469727 34.09999918937683,12.600000381469727 34.59999918937683,12.600000381469727 35.09999918937683,12.600000381469727 35.09999918937683,12.100000381469727 35.09999918937683,11.600000381469727 35.09999918937683,11.200000762939453 35.09999918937683,10.600000381469727 34.59999918937683,10.600000381469727 " id="svg_49"/><polygon class="st0" points="36.299999952316284,10.600000381469727 35.799999952316284,10.600000381469727 35.299999952316284,10.600000381469727 35.299999952316284,11.200000762939453 35.299999952316284,11.600000381469727 35.299999952316284,12.100000381469727 35.299999952316284,12.600000381469727 35.799999952316284,12.600000381469727 36.299999952316284,12.600000381469727 36.799999952316284,12.600000381469727 37.20000147819519,12.600000381469727 37.20000147819519,12.100000381469727 37.20000147819519,11.600000381469727 37.20000147819519,11.200000762939453 37.20000147819519,10.600000381469727 36.799999952316284,10.600000381469727 " id="svg_50"/><polygon class="st0" points="29.899998426437378,4.30000114440918 29.399998426437378,4.30000114440918 28.899998426437378,4.30000114440918 28.899998426437378,4.80000114440918 28.899998426437378,5.200000762939453 28.899998426437378,5.700000762939453 28.899998426437378,6.200000762939453 29.399998426437378,6.200000762939453 29.899998426437378,6.200000762939453 30.399998426437378,6.200000762939453 30.899998426437378,6.200000762939453 30.899998426437378,5.700000762939453 30.899998426437378,5.200000762939453 30.899998426437378,4.80000114440918 30.899998426437378,4.30000114440918 30.399998426437378,4.30000114440918 " id="svg_51"/><polygon class="st0" points="29.899998426437378,6.399999618530273 29.399998426437378,6.399999618530273 28.899998426437378,6.399999618530273 28.899998426437378,6.899999618530273 28.899998426437378,7.30000114440918 28.899998426437378,7.899999618530273 28.899998426437378,8.399999618530273 29.399998426437378,8.399999618530273 29.899998426437378,8.399999618530273 30.399998426437378,8.399999618530273 30.899998426437378,8.399999618530273 30.899998426437378,7.899999618530273 30.899998426437378,7.30000114440918 30.899998426437378,6.899999618530273 30.899998426437378,6.399999618530273 30.399998426437378,6.399999618530273 " id="svg_52"/><polygon class="st0" points="29.899998426437378,8.5 29.399998426437378,8.5 28.899998426437378,8.5 28.899998426437378,9 28.899998426437378,9.5 28.899998426437378,10 28.899998426437378,10.5 29.399998426437378,10.5 29.899998426437378,10.5 30.399998426437378,10.5 30.899998426437378,10.5 30.899998426437378,10 30.899998426437378,9.5 30.899998426437378,9 30.899998426437378,8.5 30.399998426437378,8.5 " id="svg_53"/><polygon class="st0" points="36.299999952316284,8.5 35.799999952316284,8.5 35.299999952316284,8.5 35.299999952316284,9 35.299999952316284,9.5 35.299999952316284,10 35.299999952316284,10.5 35.799999952316284,10.5 36.299999952316284,10.5 36.799999952316284,10.5 37.20000147819519,10.5 37.20000147819519,10 37.20000147819519,9.5 37.20000147819519,9 37.20000147819519,8.5 36.799999952316284,8.5 " id="svg_54"/><polygon class="st0" points="19.500000715255737,0 19.000000715255737,0 18.59999918937683,0 18.59999918937683,0.5 18.59999918937683,1 18.59999918937683,1.5 18.59999918937683,2 19.000000715255737,2 19.500000715255737,2 20.09999918937683,2 20.59999918937683,2 20.59999918937683,1.5 20.59999918937683,1 20.59999918937683,0.5 20.59999918937683,0 20.09999918937683,0 " id="svg_55"/><polygon class="st0" points="19.500000715255737,2.200000762939453 19.000000715255737,2.200000762939453 18.59999918937683,2.200000762939453 18.59999918937683,2.700000762939453 18.59999918937683,3.200000762939453 18.59999918937683,3.6000003814697266 18.59999918937683,4.100000381469727 19.000000715255737,4.100000381469727 19.500000715255737,4.100000381469727 20.09999918937683,4.100000381469727 20.59999918937683,4.100000381469727 20.59999918937683,3.6000003814697266 20.59999918937683,3.200000762939453 20.59999918937683,2.700000762939453 20.59999918937683,2.200000762939453 20.09999918937683,2.200000762939453 " id="svg_56"/><polygon class="st0" points="19.500000715255737,10.600000381469727 19.000000715255737,10.600000381469727 18.59999918937683,10.600000381469727 18.59999918937683,11.200000762939453 18.59999918937683,11.600000381469727 18.59999918937683,12.100000381469727 18.59999918937683,12.600000381469727 19.000000715255737,12.600000381469727 19.500000715255737,12.600000381469727 20.09999918937683,12.600000381469727 20.59999918937683,12.600000381469727 20.59999918937683,12.100000381469727 20.59999918937683,11.600000381469727 20.59999918937683,11.200000762939453 20.59999918937683,10.600000381469727 20.09999918937683,10.600000381469727 " id="svg_57"/><polygon class="st0" points="21.699999570846558,10.600000381469727 21.199999570846558,10.600000381469727 20.699999570846558,10.600000381469727 20.699999570846558,11.200000762939453 20.699999570846558,11.600000381469727 20.699999570846558,12.100000381469727 20.699999570846558,12.600000381469727 21.199999570846558,12.600000381469727 21.699999570846558,12.600000381469727 22.199999570846558,12.600000381469727 22.59999918937683,12.600000381469727 22.59999918937683,12.100000381469727 22.59999918937683,11.600000381469727 22.59999918937683,11.200000762939453 22.59999918937683,10.600000381469727 22.199999570846558,10.600000381469727 " id="svg_58"/><polygon class="st0" points="23.799999952316284,10.600000381469727 23.299999952316284,10.600000381469727 22.799999952316284,10.600000381469727 22.799999952316284,11.200000762939453 22.799999952316284,11.600000381469727 22.799999952316284,12.100000381469727 22.799999952316284,12.600000381469727 23.299999952316284,12.600000381469727 23.799999952316284,12.600000381469727 24.299999952316284,12.600000381469727 24.699999570846558,12.600000381469727 24.699999570846558,12.100000381469727 24.699999570846558,11.600000381469727 24.699999570846558,11.200000762939453 24.699999570846558,10.600000381469727 24.299999952316284,10.600000381469727 " id="svg_59"/><polygon class="st0" points="25.90000033378601,10.600000381469727 25.40000033378601,10.600000381469727 25.000000715255737,10.600000381469727 25.000000715255737,11.200000762939453 25.000000715255737,11.600000381469727 25.000000715255737,12.100000381469727 25.000000715255737,12.600000381469727 25.40000033378601,12.600000381469727 25.90000033378601,12.600000381469727 26.40000033378601,12.600000381469727 26.90000033378601,12.600000381469727 26.90000033378601,12.100000381469727 26.90000033378601,11.600000381469727 26.90000033378601,11.200000762939453 26.90000033378601,10.600000381469727 26.40000033378601,10.600000381469727 " id="svg_60"/><polygon class="st0" points="19.500000715255737,4.30000114440918 19.000000715255737,4.30000114440918 18.59999918937683,4.30000114440918 18.59999918937683,4.80000114440918 18.59999918937683,5.200000762939453 18.59999918937683,5.700000762939453 18.59999918937683,6.200000762939453 19.000000715255737,6.200000762939453 19.500000715255737,6.200000762939453 20.09999918937683,6.200000762939453 20.59999918937683,6.200000762939453 20.59999918937683,5.700000762939453 20.59999918937683,5.200000762939453 20.59999918937683,4.80000114440918 20.59999918937683,4.30000114440918 20.09999918937683,4.30000114440918 " id="svg_61"/><polygon class="st0" points="19.500000715255737,6.399999618530273 19.000000715255737,6.399999618530273 18.59999918937683,6.399999618530273 18.59999918937683,6.899999618530273 18.59999918937683,7.30000114440918 18.59999918937683,7.899999618530273 18.59999918937683,8.399999618530273 19.000000715255737,8.399999618530273 19.500000715255737,8.399999618530273 20.09999918937683,8.399999618530273 20.59999918937683,8.399999618530273 20.59999918937683,7.899999618530273 20.59999918937683,7.30000114440918 20.59999918937683,6.899999618530273 20.59999918937683,6.399999618530273 20.09999918937683,6.399999618530273 " id="svg_62"/><polygon class="st0" points="19.500000715255737,8.5 19.000000715255737,8.5 18.59999918937683,8.5 18.59999918937683,9 18.59999918937683,9.5 18.59999918937683,10 18.59999918937683,10.5 19.000000715255737,10.5 19.500000715255737,10.5 20.09999918937683,10.5 20.59999918937683,10.5 20.59999918937683,10 20.59999918937683,9.5 20.59999918937683,9 20.59999918937683,8.5 20.09999918937683,8.5 " id="svg_63"/><polygon class="st0" points="25.90000033378601,8.5 25.40000033378601,8.5 25.000000715255737,8.5 25.000000715255737,9 25.000000715255737,9.5 25.000000715255737,10 25.000000715255737,10.5 25.40000033378601,10.5 25.90000033378601,10.5 26.40000033378601,10.5 26.90000033378601,10.5 26.90000033378601,10 26.90000033378601,9.5 26.90000033378601,9 26.90000033378601,8.5 26.40000033378601,8.5 " id="svg_64"/></g></svg>